<?xml version="1.0" encoding="UTF-8" standalone="no"?>
<!DOCTYPE svg PUBLIC "-//W3C//DTD SVG 1.1//EN"
 "http://www.w3.org/Graphics/SVG/1.1/DTD/svg11.dtd">
<!-- Generated by graphviz version 5.0.0 (20220707.1540)
 -->
<!-- Title: UmlClassDiagram Pages: 1 -->
<svg width="1053pt" height="303pt"
 viewBox="0.00 0.00 1052.97 303.20" xmlns="http://www.w3.org/2000/svg" xmlns:xlink="http://www.w3.org/1999/xlink">
<g id="graph0" class="graph" transform="scale(1 1) rotate(0) translate(4 299.2)">
<title>UmlClassDiagram</title>
<polygon fill="white" stroke="transparent" points="-4,4 -4,-299.2 1048.97,-299.2 1048.97,4 -4,4"/>
<!-- 0 -->
<g id="node1" class="node">
<title>0</title>
<polygon fill="#f2f2f2" stroke="black" points="412.72,-79.1 412.72,-137.5 613.41,-137.5 613.41,-79.1 412.72,-79.1"/>
<text text-anchor="middle" x="513.06" y="-120.9" font-family="Times,serif" font-size="14.00">&lt;&lt;Abstract&gt;&gt;</text>
<text text-anchor="middle" x="513.06" y="-104.1" font-family="Times,serif" font-size="14.00">AbstractARM</text>
<text text-anchor="middle" x="513.06" y="-87.3" font-family="Times,serif" font-size="14.00">../src/contracts/AbstractARM.sol</text>
</g>
<!-- 39 -->
<g id="node8" class="node">
<title>39</title>
<polygon fill="#f2f2f2" stroke="black" points="401.46,-174.5 401.46,-216.1 624.67,-216.1 624.67,-174.5 401.46,-174.5"/>
<text text-anchor="middle" x="513.06" y="-199.5" font-family="Times,serif" font-size="14.00">OwnableOperable</text>
<text text-anchor="middle" x="513.06" y="-182.7" font-family="Times,serif" font-size="14.00">../src/contracts/OwnableOperable.sol</text>
</g>
<!-- 0&#45;&gt;39 -->
<g id="edge1" class="edge">
<title>0&#45;&gt;39</title>
<path fill="none" stroke="black" d="M513.06,-137.6C513.06,-139.77 513.06,-142 513.06,-144.25"/>
<polygon fill="none" stroke="black" points="502.56,-144.44 513.06,-174.44 523.56,-144.44 502.56,-144.44"/>
</g>
<!-- 4 -->
<g id="node2" class="node">
<title>4</title>
<polygon fill="#f2f2f2" stroke="black" points="0,-0.5 0,-42.1 192.13,-42.1 192.13,-0.5 0,-0.5"/>
<text text-anchor="middle" x="96.06" y="-25.5" font-family="Times,serif" font-size="14.00">EthenaARM</text>
<text text-anchor="middle" x="96.06" y="-8.7" font-family="Times,serif" font-size="14.00">../src/contracts/EthenaARM.sol</text>
</g>
<!-- 4&#45;&gt;0 -->
<g id="edge2" class="edge">
<title>4&#45;&gt;0</title>
<path fill="none" stroke="black" d="M192.26,-41.91C248.87,-53.45 321.22,-68.2 382.89,-80.76"/>
<polygon fill="none" stroke="black" points="381.14,-91.13 412.64,-86.83 385.34,-70.55 381.14,-91.13"/>
</g>
<!-- 6 -->
<g id="node3" class="node">
<title>6</title>
<polygon fill="#f2f2f2" stroke="black" points="210.44,-0.5 210.44,-42.1 405.69,-42.1 405.69,-0.5 210.44,-0.5"/>
<text text-anchor="middle" x="308.06" y="-25.5" font-family="Times,serif" font-size="14.00">EtherFiARM</text>
<text text-anchor="middle" x="308.06" y="-8.7" font-family="Times,serif" font-size="14.00">../src/contracts/EtherFiARM.sol</text>
</g>
<!-- 6&#45;&gt;0 -->
<g id="edge3" class="edge">
<title>6&#45;&gt;0</title>
<path fill="none" stroke="black" d="M355.87,-42.12C374.19,-49.72 395.81,-58.68 417.06,-67.49"/>
<polygon fill="none" stroke="black" points="413.23,-77.27 444.96,-79.06 421.27,-57.87 413.23,-77.27"/>
</g>
<!-- 35 -->
<g id="node4" class="node">
<title>35</title>
<polygon fill="#f2f2f2" stroke="black" points="423.21,-0.5 423.21,-42.1 602.91,-42.1 602.91,-0.5 423.21,-0.5"/>
<text text-anchor="middle" x="513.06" y="-25.5" font-family="Times,serif" font-size="14.00">LidoARM</text>
<text text-anchor="middle" x="513.06" y="-8.7" font-family="Times,serif" font-size="14.00">../src/contracts/LidoARM.sol</text>
</g>
<!-- 35&#45;&gt;0 -->
<g id="edge4" class="edge">
<title>35&#45;&gt;0</title>
<path fill="none" stroke="black" d="M513.06,-42.44C513.06,-44.49 513.06,-46.63 513.06,-48.83"/>
<polygon fill="none" stroke="black" points="502.56,-48.94 513.06,-78.94 523.56,-48.94 502.56,-48.94"/>
</g>
<!-- 36 -->
<g id="node5" class="node">
<title>36</title>
<polygon fill="#f2f2f2" stroke="black" points="621.32,-0.5 621.32,-42.1 836.81,-42.1 836.81,-0.5 621.32,-0.5"/>
<text text-anchor="middle" x="729.06" y="-25.5" font-family="Times,serif" font-size="14.00">MultiAssetARM</text>
<text text-anchor="middle" x="729.06" y="-8.7" font-family="Times,serif" font-size="14.00">../src/contracts/MultiAssetARM.sol</text>
</g>
<!-- 36&#45;&gt;0 -->
<g id="edge5" class="edge">
<title>36&#45;&gt;0</title>
<path fill="none" stroke="black" d="M678.69,-42.12C659.06,-49.85 635.83,-58.99 613.08,-67.94"/>
<polygon fill="none" stroke="black" points="608.89,-58.31 584.82,-79.06 616.58,-77.85 608.89,-58.31"/>
</g>
<!-- 37 -->
<g id="node6" class="node">
<title>37</title>
<polygon fill="#f2f2f2" stroke="black" points="855.16,-0.5 855.16,-42.1 1044.97,-42.1 1044.97,-0.5 855.16,-0.5"/>
<text text-anchor="middle" x="950.06" y="-25.5" font-family="Times,serif" font-size="14.00">OriginARM</text>
<text text-anchor="middle" x="950.06" y="-8.7" font-family="Times,serif" font-size="14.00">../src/contracts/OriginARM.sol</text>
</g>
<!-- 37&#45;&gt;0 -->
<g id="edge6" class="edge">
<title>37&#45;&gt;0</title>
<path fill="none" stroke="black" d="M855.13,-40.83C852.07,-41.43 849.04,-42.02 846.06,-42.6 779.15,-55.63 704.67,-70.11 643.14,-82.05"/>
<polygon fill="none" stroke="black" points="641.06,-71.76 613.62,-87.79 645.07,-92.38 641.06,-71.76"/>
</g>
<!-- 38 -->
<g id="node7" class="node">
<title>38</title>
<polygon fill="#f2f2f2" stroke="black" points="427.11,-253.1 427.11,-294.7 599.01,-294.7 599.01,-253.1 427.11,-253.1"/>
<text text-anchor="middle" x="513.06" y="-278.1" font-family="Times,serif" font-size="14.00">Ownable</text>
<text text-anchor="middle" x="513.06" y="-261.3" font-family="Times,serif" font-size="14.00">../src/contracts/Ownable.sol</text>
</g>
<!-- 39&#45;&gt;38 -->
<g id="edge7" class="edge">
<title>39&#45;&gt;38</title>
<path fill="none" stroke="black" d="M513.06,-216.43C513.06,-218.45 513.06,-220.56 513.06,-222.73"/>
<polygon fill="none" stroke="black" points="502.56,-222.91 513.06,-252.91 523.56,-222.91 502.56,-222.91"/>
</g>
</g>
</svg>
