<?xml version="1.0" encoding="UTF-8" standalone="no"?>
<!DOCTYPE svg PUBLIC "-//W3C//DTD SVG 1.1//EN"
 "http://www.w3.org/Graphics/SVG/1.1/DTD/svg11.dtd">
<!-- Generated by graphviz version 5.0.0 (20220707.1540)
 -->
<!-- Title: UmlClassDiagram Pages: 1 -->
<svg width="231pt" height="208pt"
 viewBox="0.00 0.00 231.20 207.80" xmlns="http://www.w3.org/2000/svg" xmlns:xlink="http://www.w3.org/1999/xlink">
<g id="graph0" class="graph" transform="scale(1 1) rotate(0) translate(4 203.8)">
<title>UmlClassDiagram</title>
<polygon fill="white" stroke="transparent" points="-4,4 -4,-203.8 227.2,-203.8 227.2,4 -4,4"/>
<!-- 2 -->
<g id="node1" class="node">
<title>2</title>
<polygon fill="#f2f2f2" stroke="black" points="14.77,-0.5 14.77,-42.1 208.44,-42.1 208.44,-0.5 14.77,-0.5"/>
<text text-anchor="middle" x="111.6" y="-25.5" font-family="Times,serif" font-size="14.00">CapManager</text>
<text text-anchor="middle" x="111.6" y="-8.7" font-family="Times,serif" font-size="14.00">../src/contracts/CapManager.sol</text>
</g>
<!-- 19 -->
<g id="node3" class="node">
<title>19</title>
<polygon fill="#f2f2f2" stroke="black" points="0,-79.1 0,-120.7 223.2,-120.7 223.2,-79.1 0,-79.1"/>
<text text-anchor="middle" x="111.6" y="-104.1" font-family="Times,serif" font-size="14.00">OwnableOperable</text>
<text text-anchor="middle" x="111.6" y="-87.3" font-family="Times,serif" font-size="14.00">../src/contracts/OwnableOperable.sol</text>
</g>
<!-- 2&#45;&gt;19 -->
<g id="edge1" class="edge">
<title>2&#45;&gt;19</title>
<path fill="none" stroke="black" d="M111.6,-42.43C111.6,-44.45 111.6,-46.56 111.6,-48.73"/>
<polygon fill="none" stroke="black" points="101.1,-48.91 111.6,-78.91 122.1,-48.91 101.1,-48.91"/>
</g>
<!-- 18 -->
<g id="node2" class="node">
<title>18</title>
<polygon fill="#f2f2f2" stroke="black" points="25.65,-157.7 25.65,-199.3 197.55,-199.3 197.55,-157.7 25.65,-157.7"/>
<text text-anchor="middle" x="111.6" y="-182.7" font-family="Times,serif" font-size="14.00">Ownable</text>
<text text-anchor="middle" x="111.6" y="-165.9" font-family="Times,serif" font-size="14.00">../src/contracts/Ownable.sol</text>
</g>
<!-- 19&#45;&gt;18 -->
<g id="edge2" class="edge">
<title>19&#45;&gt;18</title>
<path fill="none" stroke="black" d="M111.6,-121.03C111.6,-123.05 111.6,-125.16 111.6,-127.33"/>
<polygon fill="none" stroke="black" points="101.1,-127.51 111.6,-157.51 122.1,-127.51 101.1,-127.51"/>
</g>
</g>
</svg>
