<?xml version="1.0" encoding="UTF-8" standalone="no"?>
<!DOCTYPE svg PUBLIC "-//W3C//DTD SVG 1.1//EN"
 "http://www.w3.org/Graphics/SVG/1.1/DTD/svg11.dtd">
<!-- Generated by graphviz version 5.0.0 (20220707.1540)
 -->
<!-- Title: UmlClassDiagram Pages: 1 -->
<svg width="738pt" height="494pt"
 viewBox="0.00 0.00 737.79 494.00" xmlns="http://www.w3.org/2000/svg" xmlns:xlink="http://www.w3.org/1999/xlink">
<g id="graph0" class="graph" transform="scale(1 1) rotate(0) translate(4 490)">
<title>UmlClassDiagram</title>
<polygon fill="white" stroke="transparent" points="-4,4 -4,-490 733.79,-490 733.79,4 -4,4"/>
<!-- 0 -->
<g id="node1" class="node">
<title>0</title>
<polygon fill="#f2f2f2" stroke="black" points="248.61,-269.9 248.61,-328.3 449.3,-328.3 449.3,-269.9 248.61,-269.9"/>
<text text-anchor="middle" x="348.96" y="-311.7" font-family="Times,serif" font-size="14.00">&lt;&lt;Abstract&gt;&gt;</text>
<text text-anchor="middle" x="348.96" y="-294.9" font-family="Times,serif" font-size="14.00">AbstractARM</text>
<text text-anchor="middle" x="348.96" y="-278.1" font-family="Times,serif" font-size="14.00">../src/contracts/AbstractARM.sol</text>
</g>
<!-- 24 -->
<g id="node8" class="node">
<title>24</title>
<polygon fill="#f2f2f2" stroke="black" points="358.35,-365.3 358.35,-406.9 581.56,-406.9 581.56,-365.3 358.35,-365.3"/>
<text text-anchor="middle" x="469.96" y="-390.3" font-family="Times,serif" font-size="14.00">OwnableOperable</text>
<text text-anchor="middle" x="469.96" y="-373.5" font-family="Times,serif" font-size="14.00">../src/contracts/OwnableOperable.sol</text>
</g>
<!-- 0&#45;&gt;24 -->
<g id="edge1" class="edge">
<title>0&#45;&gt;24</title>
<path fill="none" stroke="black" d="M389.25,-328.4C398.11,-334.63 407.63,-341.31 416.9,-347.83"/>
<polygon fill="none" stroke="black" points="411.1,-356.59 441.69,-365.24 423.17,-339.4 411.1,-356.59"/>
</g>
<!-- 1 -->
<g id="node2" class="node">
<title>1</title>
<polygon fill="#f2f2f2" stroke="black" points="100.89,-79.1 100.89,-137.5 321.02,-137.5 321.02,-79.1 100.89,-79.1"/>
<text text-anchor="middle" x="210.96" y="-120.9" font-family="Times,serif" font-size="14.00">&lt;&lt;Abstract&gt;&gt;</text>
<text text-anchor="middle" x="210.96" y="-104.1" font-family="Times,serif" font-size="14.00">AccessControlLP</text>
<text text-anchor="middle" x="210.96" y="-87.3" font-family="Times,serif" font-size="14.00">../src/contracts/AccessControlLP.sol</text>
</g>
<!-- 17 -->
<g id="node6" class="node">
<title>17</title>
<polygon fill="#f2f2f2" stroke="black" points="264.55,-174.5 264.55,-232.9 433.37,-232.9 433.37,-174.5 264.55,-174.5"/>
<text text-anchor="middle" x="348.96" y="-216.3" font-family="Times,serif" font-size="14.00">&lt;&lt;Abstract&gt;&gt;</text>
<text text-anchor="middle" x="348.96" y="-199.5" font-family="Times,serif" font-size="14.00">MultiLP</text>
<text text-anchor="middle" x="348.96" y="-182.7" font-family="Times,serif" font-size="14.00">../src/contracts/MultiLP.sol</text>
</g>
<!-- 1&#45;&gt;17 -->
<g id="edge2" class="edge">
<title>1&#45;&gt;17</title>
<path fill="none" stroke="black" d="M252.74,-137.58C261.97,-143.83 271.99,-150.6 281.94,-157.34"/>
<polygon fill="none" stroke="black" points="276.11,-166.08 306.84,-174.2 287.88,-148.69 276.11,-166.08"/>
</g>
<!-- 3 -->
<g id="node3" class="node">
<title>3</title>
<polygon fill="#f2f2f2" stroke="black" points="0,-174.5 0,-232.9 213.91,-232.9 213.91,-174.5 0,-174.5"/>
<text text-anchor="middle" x="106.96" y="-216.3" font-family="Times,serif" font-size="14.00">&lt;&lt;Abstract&gt;&gt;</text>
<text text-anchor="middle" x="106.96" y="-199.5" font-family="Times,serif" font-size="14.00">FixedPriceARM</text>
<text text-anchor="middle" x="106.96" y="-182.7" font-family="Times,serif" font-size="14.00">../src/contracts/FixedPriceARM.sol</text>
</g>
<!-- 3&#45;&gt;0 -->
<g id="edge3" class="edge">
<title>3&#45;&gt;0</title>
<path fill="none" stroke="black" d="M180.22,-232.98C201.33,-241.12 224.75,-250.16 247.25,-258.85"/>
<polygon fill="none" stroke="black" points="243.76,-268.75 275.52,-269.76 251.32,-249.16 243.76,-268.75"/>
</g>
<!-- 13 -->
<g id="node4" class="node">
<title>13</title>
<polygon fill="#f2f2f2" stroke="black" points="205.44,-0.5 205.44,-42.1 492.47,-42.1 492.47,-0.5 205.44,-0.5"/>
<text text-anchor="middle" x="348.96" y="-25.5" font-family="Times,serif" font-size="14.00">LidoFixedPriceMultiLpARM</text>
<text text-anchor="middle" x="348.96" y="-8.7" font-family="Times,serif" font-size="14.00">../src/contracts/LidoFixedPriceMultiLpARM.sol</text>
</g>
<!-- 13&#45;&gt;1 -->
<g id="edge6" class="edge">
<title>13&#45;&gt;1</title>
<path fill="none" stroke="black" d="M316.6,-42.23C306.33,-48.55 294.53,-55.82 282.63,-63.15"/>
<polygon fill="none" stroke="black" points="276.99,-54.29 256.96,-78.97 288.01,-72.17 276.99,-54.29"/>
</g>
<!-- 13&#45;&gt;3 -->
<g id="edge7" class="edge">
<title>13&#45;&gt;3</title>
<path fill="none" stroke="black" d="M205.39,-37.85C155.13,-46.48 107.35,-59.47 91.96,-78.6 77,-97.19 77.66,-122.7 83.27,-145.75"/>
<polygon fill="none" stroke="black" points="73.35,-149.2 92.81,-174.33 93.27,-142.55 73.35,-149.2"/>
</g>
<!-- 14 -->
<g id="node5" class="node">
<title>14</title>
<polygon fill="#f2f2f2" stroke="black" points="480.12,-269.9 480.12,-328.3 729.79,-328.3 729.79,-269.9 480.12,-269.9"/>
<text text-anchor="middle" x="604.96" y="-311.7" font-family="Times,serif" font-size="14.00">&lt;&lt;Abstract&gt;&gt;</text>
<text text-anchor="middle" x="604.96" y="-294.9" font-family="Times,serif" font-size="14.00">LidoLiquidityManager</text>
<text text-anchor="middle" x="604.96" y="-278.1" font-family="Times,serif" font-size="14.00">../src/contracts/LidoLiquidityManager.sol</text>
</g>
<!-- 13&#45;&gt;14 -->
<g id="edge8" class="edge">
<title>13&#45;&gt;14</title>
<path fill="none" stroke="black" d="M492.75,-39.09C540.42,-47.8 585.13,-60.51 599.96,-78.6 636.54,-123.25 631.59,-191.89 621.45,-240.51"/>
<polygon fill="none" stroke="black" points="611.22,-238.13 614.22,-269.77 631.61,-243.16 611.22,-238.13"/>
</g>
<!-- 13&#45;&gt;17 -->
<g id="edge4" class="edge">
<title>13&#45;&gt;17</title>
<path fill="none" stroke="black" d="M348.96,-42.3C348.96,-66.69 348.96,-109.01 348.96,-144.06"/>
<polygon fill="none" stroke="black" points="338.46,-144.33 348.96,-174.33 359.46,-144.33 338.46,-144.33"/>
</g>
<!-- 27 -->
<g id="node9" class="node">
<title>27</title>
<polygon fill="#f2f2f2" stroke="black" points="377.41,-79.1 377.41,-137.5 590.5,-137.5 590.5,-79.1 377.41,-79.1"/>
<text text-anchor="middle" x="483.96" y="-120.9" font-family="Times,serif" font-size="14.00">&lt;&lt;Abstract&gt;&gt;</text>
<text text-anchor="middle" x="483.96" y="-104.1" font-family="Times,serif" font-size="14.00">PerformanceFee</text>
<text text-anchor="middle" x="483.96" y="-87.3" font-family="Times,serif" font-size="14.00">../src/contracts/PerformanceFee.sol</text>
</g>
<!-- 13&#45;&gt;27 -->
<g id="edge5" class="edge">
<title>13&#45;&gt;27</title>
<path fill="none" stroke="black" d="M380.61,-42.23C390.52,-48.47 401.88,-55.62 413.37,-62.86"/>
<polygon fill="none" stroke="black" points="407.98,-71.87 438.96,-78.97 419.17,-54.1 407.98,-71.87"/>
</g>
<!-- 14&#45;&gt;24 -->
<g id="edge9" class="edge">
<title>14&#45;&gt;24</title>
<path fill="none" stroke="black" d="M560,-328.4C549.52,-335.01 538.21,-342.13 527.27,-349.01"/>
<polygon fill="none" stroke="black" points="521.29,-340.37 501.5,-365.24 532.48,-358.14 521.29,-340.37"/>
</g>
<!-- 17&#45;&gt;0 -->
<g id="edge10" class="edge">
<title>17&#45;&gt;0</title>
<path fill="none" stroke="black" d="M348.96,-232.98C348.96,-235.06 348.96,-237.2 348.96,-239.38"/>
<polygon fill="none" stroke="black" points="338.46,-239.6 348.96,-269.6 359.46,-239.6 338.46,-239.6"/>
</g>
<!-- 23 -->
<g id="node7" class="node">
<title>23</title>
<polygon fill="#f2f2f2" stroke="black" points="384.01,-443.9 384.01,-485.5 555.91,-485.5 555.91,-443.9 384.01,-443.9"/>
<text text-anchor="middle" x="469.96" y="-468.9" font-family="Times,serif" font-size="14.00">Ownable</text>
<text text-anchor="middle" x="469.96" y="-452.1" font-family="Times,serif" font-size="14.00">../src/contracts/Ownable.sol</text>
</g>
<!-- 24&#45;&gt;23 -->
<g id="edge11" class="edge">
<title>24&#45;&gt;23</title>
<path fill="none" stroke="black" d="M469.96,-407.23C469.96,-409.25 469.96,-411.36 469.96,-413.53"/>
<polygon fill="none" stroke="black" points="459.46,-413.71 469.96,-443.71 480.46,-413.71 459.46,-413.71"/>
</g>
<!-- 27&#45;&gt;17 -->
<g id="edge12" class="edge">
<title>27&#45;&gt;17</title>
<path fill="none" stroke="black" d="M443.09,-137.58C434.18,-143.74 424.54,-150.41 414.94,-157.05"/>
<polygon fill="none" stroke="black" points="408.85,-148.49 390.15,-174.2 420.8,-165.76 408.85,-148.49"/>
</g>
</g>
</svg>
