<?xml version="1.0" encoding="UTF-8" standalone="no"?>
<!DOCTYPE svg PUBLIC "-//W3C//DTD SVG 1.1//EN"
 "http://www.w3.org/Graphics/SVG/1.1/DTD/svg11.dtd">
<!-- Generated by graphviz version 5.0.0 (20220707.1540)
 -->
<!-- Title: UmlClassDiagram Pages: 1 -->
<svg width="1146pt" height="415pt"
 viewBox="0.00 0.00 1146.01 415.40" xmlns="http://www.w3.org/2000/svg" xmlns:xlink="http://www.w3.org/1999/xlink">
<g id="graph0" class="graph" transform="scale(1 1) rotate(0) translate(4 411.4)">
<title>UmlClassDiagram</title>
<polygon fill="white" stroke="transparent" points="-4,4 -4,-411.4 1142.01,-411.4 1142.01,4 -4,4"/>
<!-- 0 -->
<g id="node1" class="node">
<title>0</title>
<polygon fill="#f2f2f2" stroke="black" points="696.56,-174.5 696.56,-232.9 897.24,-232.9 897.24,-174.5 696.56,-174.5"/>
<text text-anchor="middle" x="796.9" y="-216.3" font-family="Times,serif" font-size="14.00">&lt;&lt;Abstract&gt;&gt;</text>
<text text-anchor="middle" x="796.9" y="-199.5" font-family="Times,serif" font-size="14.00">AbstractARM</text>
<text text-anchor="middle" x="796.9" y="-182.7" font-family="Times,serif" font-size="14.00">../src/contracts/AbstractARM.sol</text>
</g>
<!-- 2 -->
<g id="node3" class="node">
<title>2</title>
<polygon fill="#f2f2f2" stroke="black" points="193.63,-269.9 193.63,-328.3 370.17,-328.3 370.17,-269.9 193.63,-269.9"/>
<text text-anchor="middle" x="281.9" y="-311.7" font-family="Times,serif" font-size="14.00">&lt;&lt;Interface&gt;&gt;</text>
<text text-anchor="middle" x="281.9" y="-294.9" font-family="Times,serif" font-size="14.00">IERC20</text>
<text text-anchor="middle" x="281.9" y="-278.1" font-family="Times,serif" font-size="14.00">../src/contracts/Interfaces.sol</text>
</g>
<!-- 0&#45;&gt;2 -->
<g id="edge2" class="edge">
<title>0&#45;&gt;2</title>
<path fill="none" stroke="black" d="M696.36,-223.83C679.2,-227.06 661.54,-230.35 644.9,-233.4 555.45,-249.82 453.49,-267.94 380.45,-280.82"/>
<polygon fill="black" stroke="black" points="379.58,-277.42 370.34,-282.6 380.79,-284.31 379.58,-277.42"/>
</g>
<!-- 19 -->
<g id="node9" class="node">
<title>19</title>
<polygon fill="#f2f2f2" stroke="black" points="557.3,-278.3 557.3,-319.9 780.5,-319.9 780.5,-278.3 557.3,-278.3"/>
<text text-anchor="middle" x="668.9" y="-303.3" font-family="Times,serif" font-size="14.00">OwnableOperable</text>
<text text-anchor="middle" x="668.9" y="-286.5" font-family="Times,serif" font-size="14.00">../src/contracts/OwnableOperable.sol</text>
</g>
<!-- 0&#45;&gt;19 -->
<g id="edge1" class="edge">
<title>0&#45;&gt;19</title>
<path fill="none" stroke="black" d="M758.15,-232.98C746.26,-241.65 733,-251.33 720.4,-260.52"/>
<polygon fill="none" stroke="black" points="714.2,-252.05 696.15,-278.21 726.58,-269.01 714.2,-252.05"/>
</g>
<!-- 1 -->
<g id="node2" class="node">
<title>1</title>
<polygon fill="#f2f2f2" stroke="black" points="689.94,-79.1 689.94,-137.5 903.86,-137.5 903.86,-79.1 689.94,-79.1"/>
<text text-anchor="middle" x="796.9" y="-120.9" font-family="Times,serif" font-size="14.00">&lt;&lt;Abstract&gt;&gt;</text>
<text text-anchor="middle" x="796.9" y="-104.1" font-family="Times,serif" font-size="14.00">FixedPriceARM</text>
<text text-anchor="middle" x="796.9" y="-87.3" font-family="Times,serif" font-size="14.00">../src/contracts/FixedPriceARM.sol</text>
</g>
<!-- 1&#45;&gt;0 -->
<g id="edge3" class="edge">
<title>1&#45;&gt;0</title>
<path fill="none" stroke="black" d="M796.9,-137.58C796.9,-139.66 796.9,-141.8 796.9,-143.98"/>
<polygon fill="none" stroke="black" points="786.4,-144.2 796.9,-174.2 807.4,-144.2 786.4,-144.2"/>
</g>
<!-- 1&#45;&gt;2 -->
<g id="edge4" class="edge">
<title>1&#45;&gt;2</title>
<path fill="none" stroke="black" stroke-dasharray="5,2" d="M748.73,-137.57C729.72,-148.81 707.72,-161.92 687.9,-174 645.37,-199.91 639.11,-214.84 592.9,-233.4 524.67,-260.81 443.15,-277.22 380.69,-286.65"/>
<polygon fill="black" stroke="black" points="379.83,-283.24 370.45,-288.16 380.85,-290.16 379.83,-283.24"/>
</g>
<!-- 8 -->
<g id="node4" class="node">
<title>8</title>
<polygon fill="#f2f2f2" stroke="black" points="193.63,-174.5 193.63,-232.9 370.17,-232.9 370.17,-174.5 193.63,-174.5"/>
<text text-anchor="middle" x="281.9" y="-216.3" font-family="Times,serif" font-size="14.00">&lt;&lt;Interface&gt;&gt;</text>
<text text-anchor="middle" x="281.9" y="-199.5" font-family="Times,serif" font-size="14.00">IWETH</text>
<text text-anchor="middle" x="281.9" y="-182.7" font-family="Times,serif" font-size="14.00">../src/contracts/Interfaces.sol</text>
</g>
<!-- 8&#45;&gt;2 -->
<g id="edge5" class="edge">
<title>8&#45;&gt;2</title>
<path fill="none" stroke="black" stroke-dasharray="5,2" d="M281.9,-232.98C281.9,-235.06 281.9,-237.2 281.9,-239.38"/>
<polygon fill="none" stroke="black" points="271.4,-239.6 281.9,-269.6 292.4,-239.6 271.4,-239.6"/>
</g>
<!-- 9 -->
<g id="node5" class="node">
<title>9</title>
<polygon fill="#f2f2f2" stroke="black" points="388.63,-174.5 388.63,-232.9 565.17,-232.9 565.17,-174.5 388.63,-174.5"/>
<text text-anchor="middle" x="476.9" y="-216.3" font-family="Times,serif" font-size="14.00">&lt;&lt;Interface&gt;&gt;</text>
<text text-anchor="middle" x="476.9" y="-199.5" font-family="Times,serif" font-size="14.00">IStETHWithdrawal</text>
<text text-anchor="middle" x="476.9" y="-182.7" font-family="Times,serif" font-size="14.00">../src/contracts/Interfaces.sol</text>
</g>
<!-- 11 -->
<g id="node6" class="node">
<title>11</title>
<polygon fill="#f2f2f2" stroke="black" points="582.05,-0.5 582.05,-42.1 761.75,-42.1 761.75,-0.5 582.05,-0.5"/>
<text text-anchor="middle" x="671.9" y="-25.5" font-family="Times,serif" font-size="14.00">LidoARM</text>
<text text-anchor="middle" x="671.9" y="-8.7" font-family="Times,serif" font-size="14.00">../src/contracts/LidoARM.sol</text>
</g>
<!-- 11&#45;&gt;1 -->
<g id="edge8" class="edge">
<title>11&#45;&gt;1</title>
<path fill="none" stroke="black" d="M701.21,-42.23C709.97,-48.19 719.95,-54.98 730.09,-61.87"/>
<polygon fill="none" stroke="black" points="724.28,-70.62 754.99,-78.81 736.09,-53.25 724.28,-70.62"/>
</g>
<!-- 12 -->
<g id="node7" class="node">
<title>12</title>
<polygon fill="#f2f2f2" stroke="black" points="422.07,-87.5 422.07,-129.1 671.73,-129.1 671.73,-87.5 422.07,-87.5"/>
<text text-anchor="middle" x="546.9" y="-112.5" font-family="Times,serif" font-size="14.00">LidoLiquidityManager</text>
<text text-anchor="middle" x="546.9" y="-95.7" font-family="Times,serif" font-size="14.00">../src/contracts/LidoLiquidityManager.sol</text>
</g>
<!-- 11&#45;&gt;12 -->
<g id="edge9" class="edge">
<title>11&#45;&gt;12</title>
<path fill="none" stroke="black" d="M642.59,-42.23C630.13,-50.7 615.19,-60.86 600.86,-70.6"/>
<polygon fill="none" stroke="black" points="594.93,-61.94 576.02,-87.5 606.73,-79.31 594.93,-61.94"/>
</g>
<!-- 20 -->
<g id="node10" class="node">
<title>20</title>
<polygon fill="#f2f2f2" stroke="black" points="0,-174.5 0,-232.9 175.8,-232.9 175.8,-174.5 0,-174.5"/>
<text text-anchor="middle" x="87.9" y="-216.3" font-family="Times,serif" font-size="14.00">&lt;&lt;Abstract&gt;&gt;</text>
<text text-anchor="middle" x="87.9" y="-199.5" font-family="Times,serif" font-size="14.00">OwnerLP</text>
<text text-anchor="middle" x="87.9" y="-182.7" font-family="Times,serif" font-size="14.00">../src/contracts/OwnerLP.sol</text>
</g>
<!-- 11&#45;&gt;20 -->
<g id="edge7" class="edge">
<title>11&#45;&gt;20</title>
<path fill="none" stroke="black" d="M581.75,-38.43C531.57,-48.27 468.25,-62.12 412.9,-78.6 333.21,-102.33 245.24,-136.42 180.95,-162.88"/>
<polygon fill="none" stroke="black" points="176.85,-153.21 153.18,-174.43 184.92,-172.6 176.85,-153.21"/>
</g>
<!-- 30 -->
<g id="node11" class="node">
<title>30</title>
<polygon fill="#f2f2f2" stroke="black" points="921.79,-79.1 921.79,-137.5 1138.01,-137.5 1138.01,-79.1 921.79,-79.1"/>
<text text-anchor="middle" x="1029.9" y="-120.9" font-family="Times,serif" font-size="14.00">&lt;&lt;Abstract&gt;&gt;</text>
<text text-anchor="middle" x="1029.9" y="-104.1" font-family="Times,serif" font-size="14.00">Initializable</text>
<text text-anchor="middle" x="1029.9" y="-87.3" font-family="Times,serif" font-size="14.00">../src/contracts/utils/Initializable.sol</text>
</g>
<!-- 11&#45;&gt;30 -->
<g id="edge6" class="edge">
<title>11&#45;&gt;30</title>
<path fill="none" stroke="black" d="M757.84,-42.13C796.31,-51.06 842.9,-61.95 892.23,-73.68"/>
<polygon fill="none" stroke="black" points="889.93,-83.92 921.54,-80.68 894.8,-63.5 889.93,-83.92"/>
</g>
<!-- 12&#45;&gt;2 -->
<g id="edge11" class="edge">
<title>12&#45;&gt;2</title>
<path fill="none" stroke="black" d="M560.28,-129.22C576.32,-155.83 598.19,-203.14 573.9,-233.4 549.75,-263.48 455.27,-280.44 380.24,-289.37"/>
<polygon fill="black" stroke="black" points="379.79,-285.9 370.26,-290.53 380.59,-292.86 379.79,-285.9"/>
</g>
<!-- 12&#45;&gt;8 -->
<g id="edge12" class="edge">
<title>12&#45;&gt;8</title>
<path fill="none" stroke="black" d="M490.7,-129.11C456.24,-141.25 411.35,-157.08 372.02,-170.94"/>
<polygon fill="black" stroke="black" points="370.42,-167.79 362.15,-174.42 372.74,-174.39 370.42,-167.79"/>
</g>
<!-- 12&#45;&gt;9 -->
<g id="edge13" class="edge">
<title>12&#45;&gt;9</title>
<path fill="none" stroke="black" d="M532.05,-129.11C523.95,-139.91 513.67,-153.63 504.19,-166.29"/>
<polygon fill="black" stroke="black" points="501.29,-164.31 498.1,-174.42 506.89,-168.51 501.29,-164.31"/>
</g>
<!-- 12&#45;&gt;19 -->
<g id="edge10" class="edge">
<title>12&#45;&gt;19</title>
<path fill="none" stroke="black" d="M568.24,-129.27C580.5,-141.45 595.65,-157.75 606.9,-174 623.39,-197.82 638.07,-226.65 649,-250.53"/>
<polygon fill="none" stroke="black" points="639.46,-254.91 661.05,-278.23 658.71,-246.53 639.46,-254.91"/>
</g>
<!-- 18 -->
<g id="node8" class="node">
<title>18</title>
<polygon fill="#f2f2f2" stroke="black" points="291.95,-365.3 291.95,-406.9 463.85,-406.9 463.85,-365.3 291.95,-365.3"/>
<text text-anchor="middle" x="377.9" y="-390.3" font-family="Times,serif" font-size="14.00">Ownable</text>
<text text-anchor="middle" x="377.9" y="-373.5" font-family="Times,serif" font-size="14.00">../src/contracts/Ownable.sol</text>
</g>
<!-- 19&#45;&gt;18 -->
<g id="edge14" class="edge">
<title>19&#45;&gt;18</title>
<path fill="none" stroke="black" d="M601.04,-319.92C563.47,-330.9 516.13,-344.72 474.73,-356.81"/>
<polygon fill="none" stroke="black" points="471.72,-346.76 445.87,-365.25 477.61,-366.91 471.72,-346.76"/>
</g>
<!-- 20&#45;&gt;2 -->
<g id="edge16" class="edge">
<title>20&#45;&gt;2</title>
<path fill="none" stroke="black" stroke-dasharray="5,2" d="M146.63,-232.98C167.81,-243.17 191.88,-254.76 213.79,-265.31"/>
<polygon fill="black" stroke="black" points="212.5,-268.57 223.03,-269.76 215.54,-262.27 212.5,-268.57"/>
</g>
<!-- 20&#45;&gt;18 -->
<g id="edge15" class="edge">
<title>20&#45;&gt;18</title>
<path fill="none" stroke="black" d="M103,-233.08C119.48,-261.38 148.45,-304.1 184.9,-328.8 208.01,-344.46 235.52,-355.83 262.42,-364.07"/>
<polygon fill="none" stroke="black" points="260.01,-374.29 291.71,-371.95 265.47,-354.01 260.01,-374.29"/>
</g>
</g>
</svg>
