<?xml version="1.0" encoding="UTF-8" standalone="no"?>
<!DOCTYPE svg PUBLIC "-//W3C//DTD SVG 1.1//EN"
 "http://www.w3.org/Graphics/SVG/1.1/DTD/svg11.dtd">
<!-- Generated by graphviz version 5.0.0 (20220707.1540)
 -->
<!-- Title: UmlClassDiagram Pages: 1 -->
<svg width="785pt" height="494pt"
 viewBox="0.00 0.00 785.38 494.00" xmlns="http://www.w3.org/2000/svg" xmlns:xlink="http://www.w3.org/1999/xlink">
<g id="graph0" class="graph" transform="scale(1 1) rotate(0) translate(4 490)">
<title>UmlClassDiagram</title>
<polygon fill="white" stroke="transparent" points="-4,4 -4,-490 781.38,-490 781.38,4 -4,4"/>
<!-- 0 -->
<g id="node1" class="node">
<title>0</title>
<polygon fill="#f2f2f2" stroke="black" points="309.2,-269.9 309.2,-328.3 509.89,-328.3 509.89,-269.9 309.2,-269.9"/>
<text text-anchor="middle" x="409.55" y="-311.7" font-family="Times,serif" font-size="14.00">&lt;&lt;Abstract&gt;&gt;</text>
<text text-anchor="middle" x="409.55" y="-294.9" font-family="Times,serif" font-size="14.00">AbstractARM</text>
<text text-anchor="middle" x="409.55" y="-278.1" font-family="Times,serif" font-size="14.00">../src/contracts/AbstractARM.sol</text>
</g>
<!-- 28 -->
<g id="node8" class="node">
<title>28</title>
<polygon fill="#f2f2f2" stroke="black" points="418.94,-365.3 418.94,-406.9 642.15,-406.9 642.15,-365.3 418.94,-365.3"/>
<text text-anchor="middle" x="530.55" y="-390.3" font-family="Times,serif" font-size="14.00">OwnableOperable</text>
<text text-anchor="middle" x="530.55" y="-373.5" font-family="Times,serif" font-size="14.00">../src/contracts/OwnableOperable.sol</text>
</g>
<!-- 0&#45;&gt;28 -->
<g id="edge1" class="edge">
<title>0&#45;&gt;28</title>
<path fill="none" stroke="black" d="M449.84,-328.4C458.7,-334.63 468.22,-341.31 477.49,-347.83"/>
<polygon fill="none" stroke="black" points="471.69,-356.59 502.28,-365.24 483.76,-339.4 471.69,-356.59"/>
</g>
<!-- 1 -->
<g id="node2" class="node">
<title>1</title>
<polygon fill="#f2f2f2" stroke="black" points="231.48,-79.1 231.48,-137.5 451.61,-137.5 451.61,-79.1 231.48,-79.1"/>
<text text-anchor="middle" x="341.55" y="-120.9" font-family="Times,serif" font-size="14.00">&lt;&lt;Abstract&gt;&gt;</text>
<text text-anchor="middle" x="341.55" y="-104.1" font-family="Times,serif" font-size="14.00">AccessControlLP</text>
<text text-anchor="middle" x="341.55" y="-87.3" font-family="Times,serif" font-size="14.00">../src/contracts/AccessControlLP.sol</text>
</g>
<!-- 21 -->
<g id="node5" class="node">
<title>21</title>
<polygon fill="#f2f2f2" stroke="black" points="224.14,-174.5 224.14,-232.9 392.96,-232.9 392.96,-174.5 224.14,-174.5"/>
<text text-anchor="middle" x="308.55" y="-216.3" font-family="Times,serif" font-size="14.00">&lt;&lt;Abstract&gt;&gt;</text>
<text text-anchor="middle" x="308.55" y="-199.5" font-family="Times,serif" font-size="14.00">MultiLP</text>
<text text-anchor="middle" x="308.55" y="-182.7" font-family="Times,serif" font-size="14.00">../src/contracts/MultiLP.sol</text>
</g>
<!-- 1&#45;&gt;21 -->
<g id="edge2" class="edge">
<title>1&#45;&gt;21</title>
<path fill="none" stroke="black" d="M331.56,-137.58C330.63,-140.2 329.67,-142.92 328.69,-145.7"/>
<polygon fill="none" stroke="black" points="318.71,-142.41 318.62,-174.2 338.51,-149.41 318.71,-142.41"/>
</g>
<!-- 16 -->
<g id="node3" class="node">
<title>16</title>
<polygon fill="#f2f2f2" stroke="black" points="527.71,-269.9 527.71,-328.3 777.38,-328.3 777.38,-269.9 527.71,-269.9"/>
<text text-anchor="middle" x="652.55" y="-311.7" font-family="Times,serif" font-size="14.00">&lt;&lt;Abstract&gt;&gt;</text>
<text text-anchor="middle" x="652.55" y="-294.9" font-family="Times,serif" font-size="14.00">LidoLiquidityManager</text>
<text text-anchor="middle" x="652.55" y="-278.1" font-family="Times,serif" font-size="14.00">../src/contracts/LidoLiquidityManager.sol</text>
</g>
<!-- 16&#45;&gt;28 -->
<g id="edge3" class="edge">
<title>16&#45;&gt;28</title>
<path fill="none" stroke="black" d="M611.92,-328.4C602.99,-334.63 593.39,-341.31 584.04,-347.83"/>
<polygon fill="none" stroke="black" points="577.66,-339.48 559.05,-365.24 589.67,-356.71 577.66,-339.48"/>
</g>
<!-- 17 -->
<g id="node4" class="node">
<title>17</title>
<polygon fill="#f2f2f2" stroke="black" points="336.42,-0.5 336.42,-42.1 622.67,-42.1 622.67,-0.5 336.42,-0.5"/>
<text text-anchor="middle" x="479.55" y="-25.5" font-family="Times,serif" font-size="14.00">LidoMultiPriceMultiLpARM</text>
<text text-anchor="middle" x="479.55" y="-8.7" font-family="Times,serif" font-size="14.00">../src/contracts/LidoMultiPriceMultiLpARM.sol</text>
</g>
<!-- 17&#45;&gt;1 -->
<g id="edge6" class="edge">
<title>17&#45;&gt;1</title>
<path fill="none" stroke="black" d="M447.19,-42.23C436.92,-48.55 425.12,-55.82 413.22,-63.15"/>
<polygon fill="none" stroke="black" points="407.58,-54.29 387.55,-78.97 418.6,-72.17 407.58,-54.29"/>
</g>
<!-- 17&#45;&gt;16 -->
<g id="edge8" class="edge">
<title>17&#45;&gt;16</title>
<path fill="none" stroke="black" d="M509.23,-42.24C545.1,-68.08 604.26,-116.69 633.55,-174 643.79,-194.04 648.86,-218.11 651.26,-239.69"/>
<polygon fill="none" stroke="black" points="640.79,-240.43 653.19,-269.69 661.75,-239.08 640.79,-240.43"/>
</g>
<!-- 17&#45;&gt;21 -->
<g id="edge4" class="edge">
<title>17&#45;&gt;21</title>
<path fill="none" stroke="black" d="M481.71,-42.16C483.32,-67.2 482.29,-110.3 460.55,-138 454.11,-146.19 439.09,-154.95 420.87,-163.28"/>
<polygon fill="none" stroke="black" points="416.69,-153.65 393.04,-174.89 424.77,-173.04 416.69,-153.65"/>
</g>
<!-- 24 -->
<g id="node6" class="node">
<title>24</title>
<polygon fill="#f2f2f2" stroke="black" points="410.98,-174.5 410.98,-232.9 624.12,-232.9 624.12,-174.5 410.98,-174.5"/>
<text text-anchor="middle" x="517.55" y="-216.3" font-family="Times,serif" font-size="14.00">&lt;&lt;Abstract&gt;&gt;</text>
<text text-anchor="middle" x="517.55" y="-199.5" font-family="Times,serif" font-size="14.00">MultiPriceARM</text>
<text text-anchor="middle" x="517.55" y="-182.7" font-family="Times,serif" font-size="14.00">../src/contracts/MultiPriceARM.sol</text>
</g>
<!-- 17&#45;&gt;24 -->
<g id="edge7" class="edge">
<title>17&#45;&gt;24</title>
<path fill="none" stroke="black" d="M484.79,-42.3C487.54,-53.03 490.88,-66.5 493.55,-78.6 498.27,-99.97 502.95,-123.53 506.91,-144.33"/>
<polygon fill="none" stroke="black" points="496.63,-146.45 512.44,-174.02 517.27,-142.61 496.63,-146.45"/>
</g>
<!-- 31 -->
<g id="node9" class="node">
<title>31</title>
<polygon fill="#f2f2f2" stroke="black" points="0,-79.1 0,-137.5 213.09,-137.5 213.09,-79.1 0,-79.1"/>
<text text-anchor="middle" x="106.55" y="-120.9" font-family="Times,serif" font-size="14.00">&lt;&lt;Abstract&gt;&gt;</text>
<text text-anchor="middle" x="106.55" y="-104.1" font-family="Times,serif" font-size="14.00">PerformanceFee</text>
<text text-anchor="middle" x="106.55" y="-87.3" font-family="Times,serif" font-size="14.00">../src/contracts/PerformanceFee.sol</text>
</g>
<!-- 17&#45;&gt;31 -->
<g id="edge5" class="edge">
<title>17&#45;&gt;31</title>
<path fill="none" stroke="black" d="M386.02,-42.16C344.85,-51.03 295.25,-61.9 242.76,-73.95"/>
<polygon fill="none" stroke="black" points="240.2,-63.77 213.34,-80.76 244.94,-84.23 240.2,-63.77"/>
</g>
<!-- 21&#45;&gt;0 -->
<g id="edge9" class="edge">
<title>21&#45;&gt;0</title>
<path fill="none" stroke="black" d="M339.12,-232.98C344.71,-238.14 350.68,-243.66 356.7,-249.23"/>
<polygon fill="none" stroke="black" points="349.57,-256.94 378.72,-269.6 363.83,-241.52 349.57,-256.94"/>
</g>
<!-- 24&#45;&gt;0 -->
<g id="edge10" class="edge">
<title>24&#45;&gt;0</title>
<path fill="none" stroke="black" d="M484.85,-232.98C478.67,-238.32 472.04,-244.05 465.38,-249.81"/>
<polygon fill="none" stroke="black" points="458.33,-242.03 442.51,-269.6 472.06,-257.92 458.33,-242.03"/>
</g>
<!-- 27 -->
<g id="node7" class="node">
<title>27</title>
<polygon fill="#f2f2f2" stroke="black" points="444.6,-443.9 444.6,-485.5 616.5,-485.5 616.5,-443.9 444.6,-443.9"/>
<text text-anchor="middle" x="530.55" y="-468.9" font-family="Times,serif" font-size="14.00">Ownable</text>
<text text-anchor="middle" x="530.55" y="-452.1" font-family="Times,serif" font-size="14.00">../src/contracts/Ownable.sol</text>
</g>
<!-- 28&#45;&gt;27 -->
<g id="edge11" class="edge">
<title>28&#45;&gt;27</title>
<path fill="none" stroke="black" d="M530.55,-407.23C530.55,-409.25 530.55,-411.36 530.55,-413.53"/>
<polygon fill="none" stroke="black" points="520.05,-413.71 530.55,-443.71 541.05,-413.71 520.05,-413.71"/>
</g>
<!-- 31&#45;&gt;21 -->
<g id="edge12" class="edge">
<title>31&#45;&gt;21</title>
<path fill="none" stroke="black" d="M167.7,-137.58C184.14,-145.18 202.25,-153.55 219.86,-161.69"/>
<polygon fill="none" stroke="black" points="215.61,-171.3 247.25,-174.36 224.43,-152.24 215.61,-171.3"/>
</g>
</g>
</svg>
