<?xml version="1.0" encoding="UTF-8" standalone="no"?>
<!DOCTYPE svg PUBLIC "-//W3C//DTD SVG 1.1//EN"
 "http://www.w3.org/Graphics/SVG/1.1/DTD/svg11.dtd">
<!-- Generated by graphviz version 5.0.0 (20220707.1540)
 -->
<!-- Title: UmlClassDiagram Pages: 1 -->
<svg width="561pt" height="399pt"
 viewBox="0.00 0.00 560.79 398.60" xmlns="http://www.w3.org/2000/svg" xmlns:xlink="http://www.w3.org/1999/xlink">
<g id="graph0" class="graph" transform="scale(1 1) rotate(0) translate(4 394.6)">
<title>UmlClassDiagram</title>
<polygon fill="white" stroke="transparent" points="-4,4 -4,-394.6 556.79,-394.6 556.79,4 -4,4"/>
<!-- 0 -->
<g id="node1" class="node">
<title>0</title>
<polygon fill="#f2f2f2" stroke="black" points="84.61,-174.5 84.61,-232.9 285.3,-232.9 285.3,-174.5 84.61,-174.5"/>
<text text-anchor="middle" x="184.96" y="-216.3" font-family="Times,serif" font-size="14.00">&lt;&lt;Abstract&gt;&gt;</text>
<text text-anchor="middle" x="184.96" y="-199.5" font-family="Times,serif" font-size="14.00">AbstractARM</text>
<text text-anchor="middle" x="184.96" y="-182.7" font-family="Times,serif" font-size="14.00">../src/contracts/AbstractARM.sol</text>
</g>
<!-- 22 -->
<g id="node7" class="node">
<title>22</title>
<polygon fill="#f2f2f2" stroke="black" points="194.35,-269.9 194.35,-311.5 417.56,-311.5 417.56,-269.9 194.35,-269.9"/>
<text text-anchor="middle" x="305.96" y="-294.9" font-family="Times,serif" font-size="14.00">OwnableOperable</text>
<text text-anchor="middle" x="305.96" y="-278.1" font-family="Times,serif" font-size="14.00">../src/contracts/OwnableOperable.sol</text>
</g>
<!-- 0&#45;&gt;22 -->
<g id="edge1" class="edge">
<title>0&#45;&gt;22</title>
<path fill="none" stroke="black" d="M225.25,-233C234.11,-239.23 243.63,-245.91 252.9,-252.43"/>
<polygon fill="none" stroke="black" points="247.1,-261.19 277.69,-269.84 259.17,-244 247.1,-261.19"/>
</g>
<!-- 1 -->
<g id="node2" class="node">
<title>1</title>
<polygon fill="#f2f2f2" stroke="black" points="0,-79.1 0,-137.5 213.91,-137.5 213.91,-79.1 0,-79.1"/>
<text text-anchor="middle" x="106.96" y="-120.9" font-family="Times,serif" font-size="14.00">&lt;&lt;Abstract&gt;&gt;</text>
<text text-anchor="middle" x="106.96" y="-104.1" font-family="Times,serif" font-size="14.00">FixedPriceARM</text>
<text text-anchor="middle" x="106.96" y="-87.3" font-family="Times,serif" font-size="14.00">../src/contracts/FixedPriceARM.sol</text>
</g>
<!-- 1&#45;&gt;0 -->
<g id="edge2" class="edge">
<title>1&#45;&gt;0</title>
<path fill="none" stroke="black" d="M130.57,-137.58C134.13,-141.83 137.89,-146.34 141.7,-150.9"/>
<polygon fill="none" stroke="black" points="133.86,-157.9 161.15,-174.2 149.98,-144.44 133.86,-157.9"/>
</g>
<!-- 11 -->
<g id="node3" class="node">
<title>11</title>
<polygon fill="#f2f2f2" stroke="black" points="172.44,-0.5 172.44,-42.1 459.47,-42.1 459.47,-0.5 172.44,-0.5"/>
<text text-anchor="middle" x="315.96" y="-25.5" font-family="Times,serif" font-size="14.00">LidoFixedPriceMultiLpARM</text>
<text text-anchor="middle" x="315.96" y="-8.7" font-family="Times,serif" font-size="14.00">../src/contracts/LidoFixedPriceMultiLpARM.sol</text>
</g>
<!-- 11&#45;&gt;1 -->
<g id="edge4" class="edge">
<title>11&#45;&gt;1</title>
<path fill="none" stroke="black" d="M267.22,-42.12C248.43,-49.76 226.25,-58.79 204.47,-67.64"/>
<polygon fill="none" stroke="black" points="200.22,-58.03 176.39,-79.06 208.13,-77.49 200.22,-58.03"/>
</g>
<!-- 12 -->
<g id="node4" class="node">
<title>12</title>
<polygon fill="#f2f2f2" stroke="black" points="303.12,-174.5 303.12,-232.9 552.79,-232.9 552.79,-174.5 303.12,-174.5"/>
<text text-anchor="middle" x="427.96" y="-216.3" font-family="Times,serif" font-size="14.00">&lt;&lt;Abstract&gt;&gt;</text>
<text text-anchor="middle" x="427.96" y="-199.5" font-family="Times,serif" font-size="14.00">LidoLiquidityManager</text>
<text text-anchor="middle" x="427.96" y="-182.7" font-family="Times,serif" font-size="14.00">../src/contracts/LidoLiquidityManager.sol</text>
</g>
<!-- 11&#45;&gt;12 -->
<g id="edge5" class="edge">
<title>11&#45;&gt;12</title>
<path fill="none" stroke="black" d="M366.27,-42.32C382.31,-51.13 398.57,-63.07 408.96,-78.6 421.7,-97.66 427.18,-122.02 429.21,-144.09"/>
<polygon fill="none" stroke="black" points="418.72,-144.74 430.16,-174.4 439.71,-144.08 418.72,-144.74"/>
</g>
<!-- 15 -->
<g id="node5" class="node">
<title>15</title>
<polygon fill="#f2f2f2" stroke="black" points="231.55,-79.1 231.55,-137.5 400.37,-137.5 400.37,-79.1 231.55,-79.1"/>
<text text-anchor="middle" x="315.96" y="-120.9" font-family="Times,serif" font-size="14.00">&lt;&lt;Abstract&gt;&gt;</text>
<text text-anchor="middle" x="315.96" y="-104.1" font-family="Times,serif" font-size="14.00">MultiLP</text>
<text text-anchor="middle" x="315.96" y="-87.3" font-family="Times,serif" font-size="14.00">../src/contracts/MultiLP.sol</text>
</g>
<!-- 11&#45;&gt;15 -->
<g id="edge3" class="edge">
<title>11&#45;&gt;15</title>
<path fill="none" stroke="black" d="M315.96,-42.44C315.96,-44.49 315.96,-46.63 315.96,-48.83"/>
<polygon fill="none" stroke="black" points="305.46,-48.94 315.96,-78.94 326.46,-48.94 305.46,-48.94"/>
</g>
<!-- 12&#45;&gt;22 -->
<g id="edge6" class="edge">
<title>12&#45;&gt;22</title>
<path fill="none" stroke="black" d="M387.33,-233C378.4,-239.23 368.8,-245.91 359.45,-252.43"/>
<polygon fill="none" stroke="black" points="353.07,-244.08 334.46,-269.84 365.08,-261.31 353.07,-244.08"/>
</g>
<!-- 15&#45;&gt;0 -->
<g id="edge7" class="edge">
<title>15&#45;&gt;0</title>
<path fill="none" stroke="black" d="M276.3,-137.58C267.78,-143.65 258.57,-150.21 249.39,-156.76"/>
<polygon fill="none" stroke="black" points="243.27,-148.23 224.93,-174.2 255.46,-165.33 243.27,-148.23"/>
</g>
<!-- 21 -->
<g id="node6" class="node">
<title>21</title>
<polygon fill="#f2f2f2" stroke="black" points="220.01,-348.5 220.01,-390.1 391.91,-390.1 391.91,-348.5 220.01,-348.5"/>
<text text-anchor="middle" x="305.96" y="-373.5" font-family="Times,serif" font-size="14.00">Ownable</text>
<text text-anchor="middle" x="305.96" y="-356.7" font-family="Times,serif" font-size="14.00">../src/contracts/Ownable.sol</text>
</g>
<!-- 22&#45;&gt;21 -->
<g id="edge8" class="edge">
<title>22&#45;&gt;21</title>
<path fill="none" stroke="black" d="M305.96,-311.83C305.96,-313.85 305.96,-315.96 305.96,-318.13"/>
<polygon fill="none" stroke="black" points="295.46,-318.31 305.96,-348.31 316.46,-318.31 295.46,-318.31"/>
</g>
</g>
</svg>
