<?xml version="1.0" encoding="UTF-8" standalone="no"?>
<!DOCTYPE svg PUBLIC "-//W3C//DTD SVG 1.1//EN"
 "http://www.w3.org/Graphics/SVG/1.1/DTD/svg11.dtd">
<!-- Generated by graphviz version 5.0.0 (20220707.1540)
 -->
<!-- Title: UmlClassDiagram Pages: 1 -->
<svg width="476pt" height="303pt"
 viewBox="0.00 0.00 476.18 303.20" xmlns="http://www.w3.org/2000/svg" xmlns:xlink="http://www.w3.org/1999/xlink">
<g id="graph0" class="graph" transform="scale(1 1) rotate(0) translate(4 299.2)">
<title>UmlClassDiagram</title>
<polygon fill="white" stroke="transparent" points="-4,4 -4,-299.2 472.18,-299.2 472.18,4 -4,4"/>
<!-- 0 -->
<g id="node1" class="node">
<title>0</title>
<polygon fill="#f2f2f2" stroke="black" points="0,-79.1 0,-137.5 200.69,-137.5 200.69,-79.1 0,-79.1"/>
<text text-anchor="middle" x="100.34" y="-120.9" font-family="Times,serif" font-size="14.00">&lt;&lt;Abstract&gt;&gt;</text>
<text text-anchor="middle" x="100.34" y="-104.1" font-family="Times,serif" font-size="14.00">AbstractARM</text>
<text text-anchor="middle" x="100.34" y="-87.3" font-family="Times,serif" font-size="14.00">../src/contracts/AbstractARM.sol</text>
</g>
<!-- 19 -->
<g id="node5" class="node">
<title>19</title>
<polygon fill="#f2f2f2" stroke="black" points="109.74,-174.5 109.74,-216.1 332.95,-216.1 332.95,-174.5 109.74,-174.5"/>
<text text-anchor="middle" x="221.34" y="-199.5" font-family="Times,serif" font-size="14.00">OwnableOperable</text>
<text text-anchor="middle" x="221.34" y="-182.7" font-family="Times,serif" font-size="14.00">../src/contracts/OwnableOperable.sol</text>
</g>
<!-- 0&#45;&gt;19 -->
<g id="edge1" class="edge">
<title>0&#45;&gt;19</title>
<path fill="none" stroke="black" d="M140.63,-137.6C149.5,-143.83 159.01,-150.51 168.29,-157.03"/>
<polygon fill="none" stroke="black" points="162.49,-165.79 193.07,-174.44 174.56,-148.6 162.49,-165.79"/>
</g>
<!-- 13 -->
<g id="node2" class="node">
<title>13</title>
<polygon fill="#f2f2f2" stroke="black" points="131.49,-0.5 131.49,-42.1 311.19,-42.1 311.19,-0.5 131.49,-0.5"/>
<text text-anchor="middle" x="221.34" y="-25.5" font-family="Times,serif" font-size="14.00">LidoARM</text>
<text text-anchor="middle" x="221.34" y="-8.7" font-family="Times,serif" font-size="14.00">../src/contracts/LidoARM.sol</text>
</g>
<!-- 13&#45;&gt;0 -->
<g id="edge2" class="edge">
<title>13&#45;&gt;0</title>
<path fill="none" stroke="black" d="M192.97,-42.23C184.74,-48.02 175.38,-54.59 165.85,-61.28"/>
<polygon fill="none" stroke="black" points="159.42,-52.97 140.91,-78.81 171.49,-70.15 159.42,-52.97"/>
</g>
<!-- 14 -->
<g id="node3" class="node">
<title>14</title>
<polygon fill="#f2f2f2" stroke="black" points="218.51,-79.1 218.51,-137.5 468.18,-137.5 468.18,-79.1 218.51,-79.1"/>
<text text-anchor="middle" x="343.34" y="-120.9" font-family="Times,serif" font-size="14.00">&lt;&lt;Abstract&gt;&gt;</text>
<text text-anchor="middle" x="343.34" y="-104.1" font-family="Times,serif" font-size="14.00">LidoLiquidityManager</text>
<text text-anchor="middle" x="343.34" y="-87.3" font-family="Times,serif" font-size="14.00">../src/contracts/LidoLiquidityManager.sol</text>
</g>
<!-- 13&#45;&gt;14 -->
<g id="edge3" class="edge">
<title>13&#45;&gt;14</title>
<path fill="none" stroke="black" d="M249.95,-42.23C258.38,-48.1 267.97,-54.78 277.72,-61.58"/>
<polygon fill="none" stroke="black" points="271.83,-70.27 302.44,-78.81 283.83,-53.04 271.83,-70.27"/>
</g>
<!-- 14&#45;&gt;19 -->
<g id="edge4" class="edge">
<title>14&#45;&gt;19</title>
<path fill="none" stroke="black" d="M302.72,-137.6C293.78,-143.83 284.19,-150.51 274.83,-157.03"/>
<polygon fill="none" stroke="black" points="268.46,-148.68 249.85,-174.44 280.47,-165.91 268.46,-148.68"/>
</g>
<!-- 18 -->
<g id="node4" class="node">
<title>18</title>
<polygon fill="#f2f2f2" stroke="black" points="135.39,-253.1 135.39,-294.7 307.29,-294.7 307.29,-253.1 135.39,-253.1"/>
<text text-anchor="middle" x="221.34" y="-278.1" font-family="Times,serif" font-size="14.00">Ownable</text>
<text text-anchor="middle" x="221.34" y="-261.3" font-family="Times,serif" font-size="14.00">../src/contracts/Ownable.sol</text>
</g>
<!-- 19&#45;&gt;18 -->
<g id="edge5" class="edge">
<title>19&#45;&gt;18</title>
<path fill="none" stroke="black" d="M221.34,-216.43C221.34,-218.45 221.34,-220.56 221.34,-222.73"/>
<polygon fill="none" stroke="black" points="210.84,-222.91 221.34,-252.91 231.84,-222.91 210.84,-222.91"/>
</g>
</g>
</svg>
