<?xml version="1.0" encoding="UTF-8" standalone="no"?>
<!DOCTYPE svg PUBLIC "-//W3C//DTD SVG 1.1//EN"
 "http://www.w3.org/Graphics/SVG/1.1/DTD/svg11.dtd">
<!-- Generated by graphviz version 5.0.0 (20220707.1540)
 -->
<!-- Title: UmlClassDiagram Pages: 1 -->
<svg width="560pt" height="399pt"
 viewBox="0.00 0.00 560.40 398.60" xmlns="http://www.w3.org/2000/svg" xmlns:xlink="http://www.w3.org/1999/xlink">
<g id="graph0" class="graph" transform="scale(1 1) rotate(0) translate(4 394.6)">
<title>UmlClassDiagram</title>
<polygon fill="white" stroke="transparent" points="-4,4 -4,-394.6 556.4,-394.6 556.4,4 -4,4"/>
<!-- 0 -->
<g id="node1" class="node">
<title>0</title>
<polygon fill="#f2f2f2" stroke="black" points="267.49,-174.5 267.49,-232.9 468.18,-232.9 468.18,-174.5 267.49,-174.5"/>
<text text-anchor="middle" x="367.83" y="-216.3" font-family="Times,serif" font-size="14.00">&lt;&lt;Abstract&gt;&gt;</text>
<text text-anchor="middle" x="367.83" y="-199.5" font-family="Times,serif" font-size="14.00">AbstractARM</text>
<text text-anchor="middle" x="367.83" y="-182.7" font-family="Times,serif" font-size="14.00">../src/contracts/AbstractARM.sol</text>
</g>
<!-- 22 -->
<g id="node7" class="node">
<title>22</title>
<polygon fill="#f2f2f2" stroke="black" points="134.23,-269.9 134.23,-311.5 357.44,-311.5 357.44,-269.9 134.23,-269.9"/>
<text text-anchor="middle" x="245.83" y="-294.9" font-family="Times,serif" font-size="14.00">OwnableOperable</text>
<text text-anchor="middle" x="245.83" y="-278.1" font-family="Times,serif" font-size="14.00">../src/contracts/OwnableOperable.sol</text>
</g>
<!-- 0&#45;&gt;22 -->
<g id="edge1" class="edge">
<title>0&#45;&gt;22</title>
<path fill="none" stroke="black" d="M327.21,-233C318.27,-239.23 308.68,-245.91 299.32,-252.43"/>
<polygon fill="none" stroke="black" points="292.95,-244.08 274.34,-269.84 304.96,-261.31 292.95,-244.08"/>
</g>
<!-- 12 -->
<g id="node2" class="node">
<title>12</title>
<polygon fill="#f2f2f2" stroke="black" points="0,-174.5 0,-232.9 249.67,-232.9 249.67,-174.5 0,-174.5"/>
<text text-anchor="middle" x="124.83" y="-216.3" font-family="Times,serif" font-size="14.00">&lt;&lt;Abstract&gt;&gt;</text>
<text text-anchor="middle" x="124.83" y="-199.5" font-family="Times,serif" font-size="14.00">LidoLiquidityManager</text>
<text text-anchor="middle" x="124.83" y="-182.7" font-family="Times,serif" font-size="14.00">../src/contracts/LidoLiquidityManager.sol</text>
</g>
<!-- 12&#45;&gt;22 -->
<g id="edge2" class="edge">
<title>12&#45;&gt;22</title>
<path fill="none" stroke="black" d="M165.12,-233C173.99,-239.23 183.5,-245.91 192.78,-252.43"/>
<polygon fill="none" stroke="black" points="186.98,-261.19 217.56,-269.84 199.05,-244 186.98,-261.19"/>
</g>
<!-- 13 -->
<g id="node3" class="node">
<title>13</title>
<polygon fill="#f2f2f2" stroke="black" points="93.71,-0.5 93.71,-42.1 379.96,-42.1 379.96,-0.5 93.71,-0.5"/>
<text text-anchor="middle" x="236.83" y="-25.5" font-family="Times,serif" font-size="14.00">LidoMultiPriceMultiLpARM</text>
<text text-anchor="middle" x="236.83" y="-8.7" font-family="Times,serif" font-size="14.00">../src/contracts/LidoMultiPriceMultiLpARM.sol</text>
</g>
<!-- 13&#45;&gt;12 -->
<g id="edge5" class="edge">
<title>13&#45;&gt;12</title>
<path fill="none" stroke="black" d="M186.52,-42.32C170.48,-51.13 154.22,-63.07 143.83,-78.6 131.09,-97.66 125.61,-122.02 123.58,-144.09"/>
<polygon fill="none" stroke="black" points="113.08,-144.08 122.63,-174.4 134.07,-144.74 113.08,-144.08"/>
</g>
<!-- 15 -->
<g id="node4" class="node">
<title>15</title>
<polygon fill="#f2f2f2" stroke="black" points="152.42,-79.1 152.42,-137.5 321.24,-137.5 321.24,-79.1 152.42,-79.1"/>
<text text-anchor="middle" x="236.83" y="-120.9" font-family="Times,serif" font-size="14.00">&lt;&lt;Abstract&gt;&gt;</text>
<text text-anchor="middle" x="236.83" y="-104.1" font-family="Times,serif" font-size="14.00">MultiLP</text>
<text text-anchor="middle" x="236.83" y="-87.3" font-family="Times,serif" font-size="14.00">../src/contracts/MultiLP.sol</text>
</g>
<!-- 13&#45;&gt;15 -->
<g id="edge3" class="edge">
<title>13&#45;&gt;15</title>
<path fill="none" stroke="black" d="M236.83,-42.44C236.83,-44.49 236.83,-46.63 236.83,-48.83"/>
<polygon fill="none" stroke="black" points="226.33,-48.94 236.83,-78.94 247.33,-48.94 226.33,-48.94"/>
</g>
<!-- 18 -->
<g id="node5" class="node">
<title>18</title>
<polygon fill="#f2f2f2" stroke="black" points="339.26,-79.1 339.26,-137.5 552.4,-137.5 552.4,-79.1 339.26,-79.1"/>
<text text-anchor="middle" x="445.83" y="-120.9" font-family="Times,serif" font-size="14.00">&lt;&lt;Abstract&gt;&gt;</text>
<text text-anchor="middle" x="445.83" y="-104.1" font-family="Times,serif" font-size="14.00">MultiPriceARM</text>
<text text-anchor="middle" x="445.83" y="-87.3" font-family="Times,serif" font-size="14.00">../src/contracts/MultiPriceARM.sol</text>
</g>
<!-- 13&#45;&gt;18 -->
<g id="edge4" class="edge">
<title>13&#45;&gt;18</title>
<path fill="none" stroke="black" d="M285.57,-42.12C304.36,-49.76 326.54,-58.79 348.32,-67.64"/>
<polygon fill="none" stroke="black" points="344.66,-77.49 376.4,-79.06 352.57,-58.03 344.66,-77.49"/>
</g>
<!-- 15&#45;&gt;0 -->
<g id="edge6" class="edge">
<title>15&#45;&gt;0</title>
<path fill="none" stroke="black" d="M276.49,-137.58C285.01,-143.65 294.22,-150.21 303.4,-156.76"/>
<polygon fill="none" stroke="black" points="297.33,-165.33 327.86,-174.2 309.52,-148.23 297.33,-165.33"/>
</g>
<!-- 18&#45;&gt;0 -->
<g id="edge7" class="edge">
<title>18&#45;&gt;0</title>
<path fill="none" stroke="black" d="M422.22,-137.58C418.66,-141.83 414.9,-146.34 411.09,-150.9"/>
<polygon fill="none" stroke="black" points="402.81,-144.44 391.64,-174.2 418.93,-157.9 402.81,-144.44"/>
</g>
<!-- 21 -->
<g id="node6" class="node">
<title>21</title>
<polygon fill="#f2f2f2" stroke="black" points="159.88,-348.5 159.88,-390.1 331.78,-390.1 331.78,-348.5 159.88,-348.5"/>
<text text-anchor="middle" x="245.83" y="-373.5" font-family="Times,serif" font-size="14.00">Ownable</text>
<text text-anchor="middle" x="245.83" y="-356.7" font-family="Times,serif" font-size="14.00">../src/contracts/Ownable.sol</text>
</g>
<!-- 22&#45;&gt;21 -->
<g id="edge8" class="edge">
<title>22&#45;&gt;21</title>
<path fill="none" stroke="black" d="M245.83,-311.83C245.83,-313.85 245.83,-315.96 245.83,-318.13"/>
<polygon fill="none" stroke="black" points="235.33,-318.31 245.83,-348.31 256.33,-318.31 235.33,-318.31"/>
</g>
</g>
</svg>
