<?xml version="1.0" encoding="UTF-8" standalone="no"?>
<!DOCTYPE svg PUBLIC "-//W3C//DTD SVG 1.1//EN"
 "http://www.w3.org/Graphics/SVG/1.1/DTD/svg11.dtd">
<!-- Generated by graphviz version 5.0.0 (20220707.1540)
 -->
<!-- Title: UmlClassDiagram Pages: 1 -->
<svg width="231pt" height="303pt"
 viewBox="0.00 0.00 231.20 303.20" xmlns="http://www.w3.org/2000/svg" xmlns:xlink="http://www.w3.org/1999/xlink">
<g id="graph0" class="graph" transform="scale(1 1) rotate(0) translate(4 299.2)">
<title>UmlClassDiagram</title>
<polygon fill="white" stroke="transparent" points="-4,4 -4,-299.2 227.2,-299.2 227.2,4 -4,4"/>
<!-- 0 -->
<g id="node1" class="node">
<title>0</title>
<polygon fill="#f2f2f2" stroke="black" points="11.26,-79.1 11.26,-137.5 211.95,-137.5 211.95,-79.1 11.26,-79.1"/>
<text text-anchor="middle" x="111.6" y="-120.9" font-family="Times,serif" font-size="14.00">&lt;&lt;Abstract&gt;&gt;</text>
<text text-anchor="middle" x="111.6" y="-104.1" font-family="Times,serif" font-size="14.00">AbstractARM</text>
<text text-anchor="middle" x="111.6" y="-87.3" font-family="Times,serif" font-size="14.00">../src/contracts/AbstractARM.sol</text>
</g>
<!-- 19 -->
<g id="node4" class="node">
<title>19</title>
<polygon fill="#f2f2f2" stroke="black" points="0,-174.5 0,-216.1 223.2,-216.1 223.2,-174.5 0,-174.5"/>
<text text-anchor="middle" x="111.6" y="-199.5" font-family="Times,serif" font-size="14.00">OwnableOperable</text>
<text text-anchor="middle" x="111.6" y="-182.7" font-family="Times,serif" font-size="14.00">../src/contracts/OwnableOperable.sol</text>
</g>
<!-- 0&#45;&gt;19 -->
<g id="edge1" class="edge">
<title>0&#45;&gt;19</title>
<path fill="none" stroke="black" d="M111.6,-137.6C111.6,-139.77 111.6,-142 111.6,-144.25"/>
<polygon fill="none" stroke="black" points="101.1,-144.44 111.6,-174.44 122.1,-144.44 101.1,-144.44"/>
</g>
<!-- 15 -->
<g id="node2" class="node">
<title>15</title>
<polygon fill="#f2f2f2" stroke="black" points="21.75,-0.5 21.75,-42.1 201.45,-42.1 201.45,-0.5 21.75,-0.5"/>
<text text-anchor="middle" x="111.6" y="-25.5" font-family="Times,serif" font-size="14.00">LidoARM</text>
<text text-anchor="middle" x="111.6" y="-8.7" font-family="Times,serif" font-size="14.00">../src/contracts/LidoARM.sol</text>
</g>
<!-- 15&#45;&gt;0 -->
<g id="edge2" class="edge">
<title>15&#45;&gt;0</title>
<path fill="none" stroke="black" d="M111.6,-42.44C111.6,-44.49 111.6,-46.63 111.6,-48.83"/>
<polygon fill="none" stroke="black" points="101.1,-48.94 111.6,-78.94 122.1,-48.94 101.1,-48.94"/>
</g>
<!-- 18 -->
<g id="node3" class="node">
<title>18</title>
<polygon fill="#f2f2f2" stroke="black" points="25.65,-253.1 25.65,-294.7 197.55,-294.7 197.55,-253.1 25.65,-253.1"/>
<text text-anchor="middle" x="111.6" y="-278.1" font-family="Times,serif" font-size="14.00">Ownable</text>
<text text-anchor="middle" x="111.6" y="-261.3" font-family="Times,serif" font-size="14.00">../src/contracts/Ownable.sol</text>
</g>
<!-- 19&#45;&gt;18 -->
<g id="edge3" class="edge">
<title>19&#45;&gt;18</title>
<path fill="none" stroke="black" d="M111.6,-216.43C111.6,-218.45 111.6,-220.56 111.6,-222.73"/>
<polygon fill="none" stroke="black" points="101.1,-222.91 111.6,-252.91 122.1,-222.91 101.1,-222.91"/>
</g>
</g>
</svg>
