<?xml version="1.0" encoding="UTF-8" standalone="no"?>
<!DOCTYPE svg PUBLIC "-//W3C//DTD SVG 1.1//EN"
 "http://www.w3.org/Graphics/SVG/1.1/DTD/svg11.dtd">
<!-- Generated by graphviz version 5.0.0 (20220707.1540)
 -->
<!-- Title: UmlClassDiagram Pages: 1 -->
<svg width="592pt" height="415pt"
 viewBox="0.00 0.00 592.24 415.40" xmlns="http://www.w3.org/2000/svg" xmlns:xlink="http://www.w3.org/1999/xlink">
<g id="graph0" class="graph" transform="scale(1 1) rotate(0) translate(4 411.4)">
<title>UmlClassDiagram</title>
<polygon fill="white" stroke="transparent" points="-4,4 -4,-411.4 588.24,-411.4 588.24,4 -4,4"/>
<!-- 0 -->
<g id="node1" class="node">
<title>0</title>
<polygon fill="#f2f2f2" stroke="black" points="0,-174.5 0,-232.9 200.69,-232.9 200.69,-174.5 0,-174.5"/>
<text text-anchor="middle" x="100.34" y="-216.3" font-family="Times,serif" font-size="14.00">&lt;&lt;Abstract&gt;&gt;</text>
<text text-anchor="middle" x="100.34" y="-199.5" font-family="Times,serif" font-size="14.00">AbstractARM</text>
<text text-anchor="middle" x="100.34" y="-182.7" font-family="Times,serif" font-size="14.00">../src/contracts/AbstractARM.sol</text>
</g>
<!-- 28 -->
<g id="node6" class="node">
<title>28</title>
<polygon fill="#f2f2f2" stroke="black" points="166.74,-278.3 166.74,-319.9 389.95,-319.9 389.95,-278.3 166.74,-278.3"/>
<text text-anchor="middle" x="278.34" y="-303.3" font-family="Times,serif" font-size="14.00">OwnableOperable</text>
<text text-anchor="middle" x="278.34" y="-286.5" font-family="Times,serif" font-size="14.00">../src/contracts/OwnableOperable.sol</text>
</g>
<!-- 0&#45;&gt;28 -->
<g id="edge1" class="edge">
<title>0&#45;&gt;28</title>
<path fill="none" stroke="black" d="M154.23,-232.98C172.93,-242.79 194.09,-253.89 213.58,-264.12"/>
<polygon fill="none" stroke="black" points="209,-273.57 240.44,-278.21 218.76,-254.98 209,-273.57"/>
</g>
<!-- 3 -->
<g id="node2" class="node">
<title>3</title>
<polygon fill="#f2f2f2" stroke="black" points="47.39,-79.1 47.39,-137.5 261.3,-137.5 261.3,-79.1 47.39,-79.1"/>
<text text-anchor="middle" x="154.34" y="-120.9" font-family="Times,serif" font-size="14.00">&lt;&lt;Abstract&gt;&gt;</text>
<text text-anchor="middle" x="154.34" y="-104.1" font-family="Times,serif" font-size="14.00">FixedPriceARM</text>
<text text-anchor="middle" x="154.34" y="-87.3" font-family="Times,serif" font-size="14.00">../src/contracts/FixedPriceARM.sol</text>
</g>
<!-- 3&#45;&gt;0 -->
<g id="edge2" class="edge">
<title>3&#45;&gt;0</title>
<path fill="none" stroke="black" d="M137.99,-137.58C136.06,-140.93 134.03,-144.43 131.97,-148"/>
<polygon fill="none" stroke="black" points="122.75,-142.97 116.82,-174.2 140.93,-153.48 122.75,-142.97"/>
</g>
<!-- 16 -->
<g id="node3" class="node">
<title>16</title>
<polygon fill="#f2f2f2" stroke="black" points="218.51,-174.5 218.51,-232.9 468.18,-232.9 468.18,-174.5 218.51,-174.5"/>
<text text-anchor="middle" x="343.34" y="-216.3" font-family="Times,serif" font-size="14.00">&lt;&lt;Abstract&gt;&gt;</text>
<text text-anchor="middle" x="343.34" y="-199.5" font-family="Times,serif" font-size="14.00">LidoLiquidityManager</text>
<text text-anchor="middle" x="343.34" y="-182.7" font-family="Times,serif" font-size="14.00">../src/contracts/LidoLiquidityManager.sol</text>
</g>
<!-- 16&#45;&gt;28 -->
<g id="edge3" class="edge">
<title>16&#45;&gt;28</title>
<path fill="none" stroke="black" d="M323.66,-232.98C319.14,-239.48 314.22,-246.55 309.34,-253.56"/>
<polygon fill="none" stroke="black" points="300.7,-247.59 292.18,-278.21 317.94,-259.59 300.7,-247.59"/>
</g>
<!-- 18 -->
<g id="node4" class="node">
<title>18</title>
<polygon fill="#f2f2f2" stroke="black" points="226.67,-0.5 226.67,-42.1 460.02,-42.1 460.02,-0.5 226.67,-0.5"/>
<text text-anchor="middle" x="343.34" y="-25.5" font-family="Times,serif" font-size="14.00">LidoOwnerLpARM</text>
<text text-anchor="middle" x="343.34" y="-8.7" font-family="Times,serif" font-size="14.00">../src/contracts/LidoOwnerLpARM.sol</text>
</g>
<!-- 18&#45;&gt;3 -->
<g id="edge5" class="edge">
<title>18&#45;&gt;3</title>
<path fill="none" stroke="black" d="M299.03,-42.23C282.78,-49.54 263.74,-58.1 244.9,-66.57"/>
<polygon fill="none" stroke="black" points="240.4,-57.09 217.34,-78.97 249.01,-76.24 240.4,-57.09"/>
</g>
<!-- 18&#45;&gt;16 -->
<g id="edge6" class="edge">
<title>18&#45;&gt;16</title>
<path fill="none" stroke="black" d="M343.34,-42.3C343.34,-66.69 343.34,-109.01 343.34,-144.06"/>
<polygon fill="none" stroke="black" points="332.84,-144.33 343.34,-174.33 353.84,-144.33 332.84,-144.33"/>
</g>
<!-- 29 -->
<g id="node7" class="node">
<title>29</title>
<polygon fill="#f2f2f2" stroke="black" points="408.44,-269.9 408.44,-328.3 584.24,-328.3 584.24,-269.9 408.44,-269.9"/>
<text text-anchor="middle" x="496.34" y="-311.7" font-family="Times,serif" font-size="14.00">&lt;&lt;Abstract&gt;&gt;</text>
<text text-anchor="middle" x="496.34" y="-294.9" font-family="Times,serif" font-size="14.00">OwnerLP</text>
<text text-anchor="middle" x="496.34" y="-278.1" font-family="Times,serif" font-size="14.00">../src/contracts/OwnerLP.sol</text>
</g>
<!-- 18&#45;&gt;29 -->
<g id="edge4" class="edge">
<title>18&#45;&gt;29</title>
<path fill="none" stroke="black" d="M368.07,-42.21C399.14,-68.73 451.5,-118.78 477.34,-174 486.8,-194.2 491.73,-218.08 494.24,-239.47"/>
<polygon fill="none" stroke="black" points="483.79,-240.54 496.49,-269.68 504.74,-238.98 483.79,-240.54"/>
</g>
<!-- 27 -->
<g id="node5" class="node">
<title>27</title>
<polygon fill="#f2f2f2" stroke="black" points="301.39,-365.3 301.39,-406.9 473.29,-406.9 473.29,-365.3 301.39,-365.3"/>
<text text-anchor="middle" x="387.34" y="-390.3" font-family="Times,serif" font-size="14.00">Ownable</text>
<text text-anchor="middle" x="387.34" y="-373.5" font-family="Times,serif" font-size="14.00">../src/contracts/Ownable.sol</text>
</g>
<!-- 28&#45;&gt;27 -->
<g id="edge7" class="edge">
<title>28&#45;&gt;27</title>
<path fill="none" stroke="black" d="M303.9,-320.03C314.15,-328.02 326.32,-337.52 338.16,-346.75"/>
<polygon fill="none" stroke="black" points="331.83,-355.13 361.95,-365.3 344.75,-338.57 331.83,-355.13"/>
</g>
<!-- 29&#45;&gt;27 -->
<g id="edge8" class="edge">
<title>29&#45;&gt;27</title>
<path fill="none" stroke="black" d="M460.05,-328.4C452.55,-334.25 444.53,-340.51 436.66,-346.64"/>
<polygon fill="none" stroke="black" points="430.01,-338.51 412.81,-365.24 442.92,-355.07 430.01,-338.51"/>
</g>
</g>
</svg>
