<?xml version="1.0" encoding="UTF-8" standalone="no"?>
<!DOCTYPE svg PUBLIC "-//W3C//DTD SVG 1.1//EN"
 "http://www.w3.org/Graphics/SVG/1.1/DTD/svg11.dtd">
<!-- Generated by graphviz version 5.0.0 (20220707.1540)
 -->
<!-- Title: UmlClassDiagram Pages: 1 -->
<svg width="561pt" height="494pt"
 viewBox="0.00 0.00 560.79 494.00" xmlns="http://www.w3.org/2000/svg" xmlns:xlink="http://www.w3.org/1999/xlink">
<g id="graph0" class="graph" transform="scale(1 1) rotate(0) translate(4 490)">
<title>UmlClassDiagram</title>
<polygon fill="white" stroke="transparent" points="-4,4 -4,-490 556.79,-490 556.79,4 -4,4"/>
<!-- 0 -->
<g id="node1" class="node">
<title>0</title>
<polygon fill="#f2f2f2" stroke="black" points="84.61,-269.9 84.61,-328.3 285.3,-328.3 285.3,-269.9 84.61,-269.9"/>
<text text-anchor="middle" x="184.96" y="-311.7" font-family="Times,serif" font-size="14.00">&lt;&lt;Abstract&gt;&gt;</text>
<text text-anchor="middle" x="184.96" y="-294.9" font-family="Times,serif" font-size="14.00">AbstractARM</text>
<text text-anchor="middle" x="184.96" y="-278.1" font-family="Times,serif" font-size="14.00">../src/contracts/AbstractARM.sol</text>
</g>
<!-- 24 -->
<g id="node7" class="node">
<title>24</title>
<polygon fill="#f2f2f2" stroke="black" points="194.35,-365.3 194.35,-406.9 417.56,-406.9 417.56,-365.3 194.35,-365.3"/>
<text text-anchor="middle" x="305.96" y="-390.3" font-family="Times,serif" font-size="14.00">OwnableOperable</text>
<text text-anchor="middle" x="305.96" y="-373.5" font-family="Times,serif" font-size="14.00">../src/contracts/OwnableOperable.sol</text>
</g>
<!-- 0&#45;&gt;24 -->
<g id="edge1" class="edge">
<title>0&#45;&gt;24</title>
<path fill="none" stroke="black" d="M225.25,-328.4C234.11,-334.63 243.63,-341.31 252.9,-347.83"/>
<polygon fill="none" stroke="black" points="247.1,-356.59 277.69,-365.24 259.17,-339.4 247.1,-356.59"/>
</g>
<!-- 3 -->
<g id="node2" class="node">
<title>3</title>
<polygon fill="#f2f2f2" stroke="black" points="0,-174.5 0,-232.9 213.91,-232.9 213.91,-174.5 0,-174.5"/>
<text text-anchor="middle" x="106.96" y="-216.3" font-family="Times,serif" font-size="14.00">&lt;&lt;Abstract&gt;&gt;</text>
<text text-anchor="middle" x="106.96" y="-199.5" font-family="Times,serif" font-size="14.00">FixedPriceARM</text>
<text text-anchor="middle" x="106.96" y="-182.7" font-family="Times,serif" font-size="14.00">../src/contracts/FixedPriceARM.sol</text>
</g>
<!-- 3&#45;&gt;0 -->
<g id="edge2" class="edge">
<title>3&#45;&gt;0</title>
<path fill="none" stroke="black" d="M130.57,-232.98C134.13,-237.23 137.89,-241.74 141.7,-246.3"/>
<polygon fill="none" stroke="black" points="133.86,-253.3 161.15,-269.6 149.98,-239.84 133.86,-253.3"/>
</g>
<!-- 13 -->
<g id="node3" class="node">
<title>13</title>
<polygon fill="#f2f2f2" stroke="black" points="175.44,-0.5 175.44,-42.1 462.47,-42.1 462.47,-0.5 175.44,-0.5"/>
<text text-anchor="middle" x="318.96" y="-25.5" font-family="Times,serif" font-size="14.00">LidoFixedPriceMultiLpARM</text>
<text text-anchor="middle" x="318.96" y="-8.7" font-family="Times,serif" font-size="14.00">../src/contracts/LidoFixedPriceMultiLpARM.sol</text>
</g>
<!-- 13&#45;&gt;3 -->
<g id="edge5" class="edge">
<title>13&#45;&gt;3</title>
<path fill="none" stroke="black" d="M192.32,-42.24C171.23,-50.53 151.27,-62.2 135.96,-78.6 119.54,-96.19 111.84,-121.23 108.41,-144.22"/>
<polygon fill="none" stroke="black" points="97.92,-143.6 105.94,-174.35 118.85,-145.31 97.92,-143.6"/>
</g>
<!-- 14 -->
<g id="node4" class="node">
<title>14</title>
<polygon fill="#f2f2f2" stroke="black" points="303.12,-269.9 303.12,-328.3 552.79,-328.3 552.79,-269.9 303.12,-269.9"/>
<text text-anchor="middle" x="427.96" y="-311.7" font-family="Times,serif" font-size="14.00">&lt;&lt;Abstract&gt;&gt;</text>
<text text-anchor="middle" x="427.96" y="-294.9" font-family="Times,serif" font-size="14.00">LidoLiquidityManager</text>
<text text-anchor="middle" x="427.96" y="-278.1" font-family="Times,serif" font-size="14.00">../src/contracts/LidoLiquidityManager.sol</text>
</g>
<!-- 13&#45;&gt;14 -->
<g id="edge6" class="edge">
<title>13&#45;&gt;14</title>
<path fill="none" stroke="black" d="M350.01,-42.35C362.56,-51.93 376.14,-64.4 384.96,-78.6 415.2,-127.32 424.86,-192.86 427.62,-239.61"/>
<polygon fill="none" stroke="black" points="417.13,-240.18 428.61,-269.82 438.12,-239.5 417.13,-240.18"/>
</g>
<!-- 17 -->
<g id="node5" class="node">
<title>17</title>
<polygon fill="#f2f2f2" stroke="black" points="231.55,-174.5 231.55,-232.9 400.37,-232.9 400.37,-174.5 231.55,-174.5"/>
<text text-anchor="middle" x="315.96" y="-216.3" font-family="Times,serif" font-size="14.00">&lt;&lt;Abstract&gt;&gt;</text>
<text text-anchor="middle" x="315.96" y="-199.5" font-family="Times,serif" font-size="14.00">MultiLP</text>
<text text-anchor="middle" x="315.96" y="-182.7" font-family="Times,serif" font-size="14.00">../src/contracts/MultiLP.sol</text>
</g>
<!-- 13&#45;&gt;17 -->
<g id="edge3" class="edge">
<title>13&#45;&gt;17</title>
<path fill="none" stroke="black" d="M342.68,-42.28C352.5,-52.09 362.78,-64.77 367.96,-78.6 377.21,-103.33 376.72,-113.1 367.96,-138 366.56,-141.95 364.82,-145.85 362.81,-149.64"/>
<polygon fill="none" stroke="black" points="354.09,-143.79 345.57,-174.41 371.33,-155.78 354.09,-143.79"/>
</g>
<!-- 27 -->
<g id="node8" class="node">
<title>27</title>
<polygon fill="#f2f2f2" stroke="black" points="145.41,-79.1 145.41,-137.5 358.5,-137.5 358.5,-79.1 145.41,-79.1"/>
<text text-anchor="middle" x="251.96" y="-120.9" font-family="Times,serif" font-size="14.00">&lt;&lt;Abstract&gt;&gt;</text>
<text text-anchor="middle" x="251.96" y="-104.1" font-family="Times,serif" font-size="14.00">PerformanceFee</text>
<text text-anchor="middle" x="251.96" y="-87.3" font-family="Times,serif" font-size="14.00">../src/contracts/PerformanceFee.sol</text>
</g>
<!-- 13&#45;&gt;27 -->
<g id="edge4" class="edge">
<title>13&#45;&gt;27</title>
<path fill="none" stroke="black" d="M303.08,-42.44C299.92,-46.45 296.48,-50.82 292.91,-55.34"/>
<polygon fill="none" stroke="black" points="284.64,-48.88 274.31,-78.94 301.13,-61.88 284.64,-48.88"/>
</g>
<!-- 14&#45;&gt;24 -->
<g id="edge7" class="edge">
<title>14&#45;&gt;24</title>
<path fill="none" stroke="black" d="M387.33,-328.4C378.4,-334.63 368.8,-341.31 359.45,-347.83"/>
<polygon fill="none" stroke="black" points="353.07,-339.48 334.46,-365.24 365.08,-356.71 353.07,-339.48"/>
</g>
<!-- 17&#45;&gt;0 -->
<g id="edge8" class="edge">
<title>17&#45;&gt;0</title>
<path fill="none" stroke="black" d="M276.3,-232.98C267.78,-239.05 258.57,-245.61 249.39,-252.16"/>
<polygon fill="none" stroke="black" points="243.27,-243.63 224.93,-269.6 255.46,-260.73 243.27,-243.63"/>
</g>
<!-- 23 -->
<g id="node6" class="node">
<title>23</title>
<polygon fill="#f2f2f2" stroke="black" points="220.01,-443.9 220.01,-485.5 391.91,-485.5 391.91,-443.9 220.01,-443.9"/>
<text text-anchor="middle" x="305.96" y="-468.9" font-family="Times,serif" font-size="14.00">Ownable</text>
<text text-anchor="middle" x="305.96" y="-452.1" font-family="Times,serif" font-size="14.00">../src/contracts/Ownable.sol</text>
</g>
<!-- 24&#45;&gt;23 -->
<g id="edge9" class="edge">
<title>24&#45;&gt;23</title>
<path fill="none" stroke="black" d="M305.96,-407.23C305.96,-409.25 305.96,-411.36 305.96,-413.53"/>
<polygon fill="none" stroke="black" points="295.46,-413.71 305.96,-443.71 316.46,-413.71 295.46,-413.71"/>
</g>
<!-- 27&#45;&gt;17 -->
<g id="edge10" class="edge">
<title>27&#45;&gt;17</title>
<path fill="none" stroke="black" d="M271.33,-137.58C273.94,-141.38 276.68,-145.38 279.47,-149.45"/>
<polygon fill="none" stroke="black" points="270.81,-155.38 296.43,-174.2 288.13,-143.51 270.81,-155.38"/>
</g>
</g>
</svg>
