<?xml version="1.0" encoding="UTF-8" standalone="no"?>
<!DOCTYPE svg PUBLIC "-//W3C//DTD SVG 1.1//EN"
 "http://www.w3.org/Graphics/SVG/1.1/DTD/svg11.dtd">
<!-- Generated by graphviz version 5.0.0 (20220707.1540)
 -->
<!-- Title: UmlClassDiagram Pages: 1 -->
<svg width="287pt" height="208pt"
 viewBox="0.00 0.00 287.23 207.80" xmlns="http://www.w3.org/2000/svg" xmlns:xlink="http://www.w3.org/1999/xlink">
<g id="graph0" class="graph" transform="scale(1 1) rotate(0) translate(4 203.8)">
<title>UmlClassDiagram</title>
<polygon fill="white" stroke="transparent" points="-4,4 -4,-203.8 283.23,-203.8 283.23,4 -4,4"/>
<!-- 15 -->
<g id="node1" class="node">
<title>15</title>
<polygon fill="#f2f2f2" stroke="black" points="0,-0.5 0,-42.1 279.23,-42.1 279.23,-0.5 0,-0.5"/>
<text text-anchor="middle" x="139.62" y="-25.5" font-family="Times,serif" font-size="14.00">LiquidityProviderController</text>
<text text-anchor="middle" x="139.62" y="-8.7" font-family="Times,serif" font-size="14.00">../src/contracts/LiquidityProviderController.sol</text>
</g>
<!-- 19 -->
<g id="node3" class="node">
<title>19</title>
<polygon fill="#f2f2f2" stroke="black" points="28.01,-79.1 28.01,-120.7 251.22,-120.7 251.22,-79.1 28.01,-79.1"/>
<text text-anchor="middle" x="139.62" y="-104.1" font-family="Times,serif" font-size="14.00">OwnableOperable</text>
<text text-anchor="middle" x="139.62" y="-87.3" font-family="Times,serif" font-size="14.00">../src/contracts/OwnableOperable.sol</text>
</g>
<!-- 15&#45;&gt;19 -->
<g id="edge1" class="edge">
<title>15&#45;&gt;19</title>
<path fill="none" stroke="black" d="M139.62,-42.43C139.62,-44.45 139.62,-46.56 139.62,-48.73"/>
<polygon fill="none" stroke="black" points="129.12,-48.91 139.62,-78.91 150.12,-48.91 129.12,-48.91"/>
</g>
<!-- 18 -->
<g id="node2" class="node">
<title>18</title>
<polygon fill="#f2f2f2" stroke="black" points="53.67,-157.7 53.67,-199.3 225.57,-199.3 225.57,-157.7 53.67,-157.7"/>
<text text-anchor="middle" x="139.62" y="-182.7" font-family="Times,serif" font-size="14.00">Ownable</text>
<text text-anchor="middle" x="139.62" y="-165.9" font-family="Times,serif" font-size="14.00">../src/contracts/Ownable.sol</text>
</g>
<!-- 19&#45;&gt;18 -->
<g id="edge2" class="edge">
<title>19&#45;&gt;18</title>
<path fill="none" stroke="black" d="M139.62,-121.03C139.62,-123.05 139.62,-125.16 139.62,-127.33"/>
<polygon fill="none" stroke="black" points="129.12,-127.51 139.62,-157.51 150.12,-127.51 129.12,-127.51"/>
</g>
</g>
</svg>
