<?xml version="1.0" encoding="UTF-8" standalone="no"?>
<!DOCTYPE svg PUBLIC "-//W3C//DTD SVG 1.1//EN"
 "http://www.w3.org/Graphics/SVG/1.1/DTD/svg11.dtd">
<!-- Generated by graphviz version 5.0.0 (20220707.1540)
 -->
<!-- Title: StorageDiagram Pages: 1 -->
<svg width="2061pt" height="480pt"
 viewBox="0.00 0.00 2060.70 480.20" xmlns="http://www.w3.org/2000/svg" xmlns:xlink="http://www.w3.org/1999/xlink">
<g id="graph0" class="graph" transform="scale(1 1) rotate(0) translate(4 476.2)">
<title>StorageDiagram</title>
<polygon fill="white" stroke="transparent" points="-4,4 -4,-476.2 2056.7,-476.2 2056.7,4 -4,4"/>
<!-- 4 -->
<g id="node1" class="node">
<title>4</title>
<polygon fill="#f2f2f2" stroke="black" points="0,-0.5 0,-471.7 1071.36,-471.7 1071.36,-0.5 0,-0.5"/>
<text text-anchor="middle" x="535.68" y="-455.1" font-family="Courier New" font-size="14.00">MultiAssetARM &lt;&lt;Contract&gt;&gt;</text>
<polyline fill="none" stroke="black" points="0,-446.9 1071.36,-446.9 "/>
<text text-anchor="middle" x="50.01" y="-430.3" font-family="Courier New" font-size="14.00">slot</text>
<polyline fill="none" stroke="black" points="0,-422.1 100.01,-422.1 "/>
<text text-anchor="middle" x="50.01" y="-405.5" font-family="Courier New" font-size="14.00">0</text>
<polyline fill="none" stroke="black" points="0,-397.3 100.01,-397.3 "/>
<text text-anchor="middle" x="50.01" y="-380.7" font-family="Courier New" font-size="14.00">1&#45;49</text>
<polyline fill="none" stroke="black" points="0,-372.5 100.01,-372.5 "/>
<text text-anchor="middle" x="50.01" y="-355.9" font-family="Courier New" font-size="14.00">50</text>
<polyline fill="none" stroke="black" points="0,-347.7 100.01,-347.7 "/>
<text text-anchor="middle" x="50.01" y="-331.1" font-family="Courier New" font-size="14.00">51</text>
<polyline fill="none" stroke="black" points="0,-322.9 100.01,-322.9 "/>
<text text-anchor="middle" x="50.01" y="-306.3" font-family="Courier New" font-size="14.00">52</text>
<polyline fill="none" stroke="black" points="0,-298.1 100.01,-298.1 "/>
<text text-anchor="middle" x="50.01" y="-281.5" font-family="Courier New" font-size="14.00">53</text>
<polyline fill="none" stroke="black" points="0,-273.3 100.01,-273.3 "/>
<text text-anchor="middle" x="50.01" y="-256.7" font-family="Courier New" font-size="14.00">54</text>
<polyline fill="none" stroke="black" points="0,-248.5 100.01,-248.5 "/>
<text text-anchor="middle" x="50.01" y="-231.9" font-family="Courier New" font-size="14.00">55</text>
<polyline fill="none" stroke="black" points="0,-223.7 100.01,-223.7 "/>
<text text-anchor="middle" x="50.01" y="-207.1" font-family="Courier New" font-size="14.00">56</text>
<polyline fill="none" stroke="black" points="0,-198.9 100.01,-198.9 "/>
<text text-anchor="middle" x="50.01" y="-182.3" font-family="Courier New" font-size="14.00">57</text>
<polyline fill="none" stroke="black" points="0,-174.1 100.01,-174.1 "/>
<text text-anchor="middle" x="50.01" y="-157.5" font-family="Courier New" font-size="14.00">58</text>
<polyline fill="none" stroke="black" points="0,-149.3 100.01,-149.3 "/>
<text text-anchor="middle" x="50.01" y="-132.7" font-family="Courier New" font-size="14.00">59</text>
<polyline fill="none" stroke="black" points="0,-124.5 100.01,-124.5 "/>
<text text-anchor="middle" x="50.01" y="-107.9" font-family="Courier New" font-size="14.00">60</text>
<polyline fill="none" stroke="black" points="0,-99.7 100.01,-99.7 "/>
<text text-anchor="middle" x="50.01" y="-83.1" font-family="Courier New" font-size="14.00">61</text>
<polyline fill="none" stroke="black" points="0,-74.9 100.01,-74.9 "/>
<text text-anchor="middle" x="50.01" y="-58.3" font-family="Courier New" font-size="14.00">62&#45;111</text>
<polyline fill="none" stroke="black" points="0,-50.1 100.01,-50.1 "/>
<text text-anchor="middle" x="50.01" y="-33.5" font-family="Courier New" font-size="14.00">0x360..bbd</text>
<polyline fill="none" stroke="black" points="0,-25.3 100.01,-25.3 "/>
<text text-anchor="middle" x="50.01" y="-8.7" font-family="Courier New" font-size="14.00">0xb53..104</text>
<polyline fill="none" stroke="black" points="100.01,-0.5 100.01,-446.9 "/>
<text text-anchor="middle" x="585.69" y="-430.3" font-family="Courier New" font-size="14.00">type: &lt;inherited contract&gt;.variable (bytes)</text>
<polyline fill="none" stroke="black" points="100.01,-422.1 1071.36,-422.1 "/>
<text text-anchor="middle" x="296.22" y="-405.5" font-family="Courier New" font-size="14.00">unallocated (12)</text>
<polyline fill="none" stroke="black" points="492.44,-397.3 492.44,-422.1 "/>
<text text-anchor="middle" x="781.56" y="-405.5" font-family="Courier New" font-size="14.00">address: OwnableOperable.operator (20)</text>
<polyline fill="none" stroke="black" points="100.01,-397.3 1071.36,-397.3 "/>
<text text-anchor="middle" x="585.54" y="-380.7" font-family="Courier New" font-size="14.00">uint256[49]: OwnableOperable._gap (1568)</text>
<polyline fill="none" stroke="black" points="100.01,-372.5 1071.36,-372.5 "/>
<text text-anchor="middle" x="585.54" y="-355.9" font-family="Courier New" font-size="14.00">uint256: AbstractARM.nextWithdrawalIndex (32)</text>
<polyline fill="none" stroke="black" points="100.01,-347.7 1071.36,-347.7 "/>
<text text-anchor="middle" x="585.46" y="-331.1" font-family="Courier New" font-size="14.00">mapping(uint256=&gt;WithdrawalRequest): AbstractARM.withdrawalRequests (32)</text>
<polyline fill="none" stroke="black" points="100.01,-322.9 1071.36,-322.9 "/>
<text text-anchor="middle" x="300.72" y="-306.3" font-family="Courier New" font-size="14.00">unallocated (12)</text>
<polyline fill="none" stroke="black" points="501.44,-298.1 501.44,-322.9 "/>
<text text-anchor="middle" x="786.16" y="-306.3" font-family="Courier New" font-size="14.00">address: AbstractARM.capManager (20)</text>
<polyline fill="none" stroke="black" points="100.01,-298.1 1071.36,-298.1 "/>
<text text-anchor="middle" x="296.22" y="-281.5" font-family="Courier New" font-size="14.00">unallocated (12)</text>
<polyline fill="none" stroke="black" points="492.44,-273.3 492.44,-298.1 "/>
<text text-anchor="middle" x="781.56" y="-281.5" font-family="Courier New" font-size="14.00">address: AbstractARM.activeMarket (20)</text>
<polyline fill="none" stroke="black" points="100.01,-273.3 1071.36,-273.3 "/>
<text text-anchor="middle" x="585.45" y="-256.7" font-family="Courier New" font-size="14.00">mapping(address=&gt;bool): AbstractARM.supportedMarkets (32)</text>
<polyline fill="none" stroke="black" points="100.01,-248.5 1071.36,-248.5 "/>
<text text-anchor="middle" x="585.54" y="-231.9" font-family="Courier New" font-size="14.00">uint256: AbstractARM.armBuffer (32)</text>
<polyline fill="none" stroke="black" points="100.01,-223.7 1071.36,-223.7 "/>
<text text-anchor="middle" x="585.64" y="-207.1" font-family="Courier New" font-size="14.00">address[]: AbstractARM.baseAssets (32)</text>
<polyline fill="none" stroke="black" points="100.01,-198.9 1071.36,-198.9 "/>
<text text-anchor="middle" x="585.66" y="-182.3" font-family="Courier New" font-size="14.00">mapping(address=&gt;BaseAssetConfig): AbstractARM.baseAssetConfigs (32)</text>
<polyline fill="none" stroke="black" points="100.01,-174.1 1071.36,-174.1 "/>
<text text-anchor="middle" x="175.22" y="-157.5" font-family="Courier New" font-size="14.00">unallocated (13)</text>
<polyline fill="none" stroke="black" points="250.44,-149.3 250.44,-174.1 "/>
<text text-anchor="middle" x="413.86" y="-157.5" font-family="Courier New" font-size="14.00">uint128: AbstractARM.feesAccrued (16)</text>
<polyline fill="none" stroke="black" points="577.29,-149.3 577.29,-174.1 "/>
<text text-anchor="middle" x="698.7" y="-157.5" font-family="Courier New" font-size="14.00">uint16: AbstractARM.fee (2)</text>
<polyline fill="none" stroke="black" points="820.12,-149.3 820.12,-174.1 "/>
<text text-anchor="middle" x="945.74" y="-157.5" font-family="Courier New" font-size="14.00">bool: AbstractARM.paused (1)</text>
<polyline fill="none" stroke="black" points="100.01,-149.3 1071.36,-149.3 "/>
<text text-anchor="middle" x="296.22" y="-132.7" font-family="Courier New" font-size="14.00">unallocated (12)</text>
<polyline fill="none" stroke="black" points="492.44,-124.5 492.44,-149.3 "/>
<text text-anchor="middle" x="781.56" y="-132.7" font-family="Courier New" font-size="14.00">address: AbstractARM.feeCollector (20)</text>
<polyline fill="none" stroke="black" points="100.01,-124.5 1071.36,-124.5 "/>
<text text-anchor="middle" x="344.65" y="-107.9" font-family="Courier New" font-size="14.00">uint128: AbstractARM.withdrawsClaimedShares (16)</text>
<polyline fill="none" stroke="black" points="589.28,-99.7 589.28,-124.5 "/>
<text text-anchor="middle" x="830.21" y="-107.9" font-family="Courier New" font-size="14.00">uint128: AbstractARM.withdrawsQueuedShares (16)</text>
<polyline fill="none" stroke="black" points="100.01,-99.7 1071.36,-99.7 "/>
<text text-anchor="middle" x="269.22" y="-83.1" font-family="Courier New" font-size="14.00">unallocated (16)</text>
<polyline fill="none" stroke="black" points="438.44,-74.9 438.44,-99.7 "/>
<text text-anchor="middle" x="754.67" y="-83.1" font-family="Courier New" font-size="14.00">uint128: AbstractARM.reservedWithdrawLiquidity (16)</text>
<polyline fill="none" stroke="black" points="100.01,-74.9 1071.36,-74.9 "/>
<text text-anchor="middle" x="585.24" y="-58.3" font-family="Courier New" font-size="14.00">uint256[50]: AbstractARM._gap (1600)</text>
<polyline fill="none" stroke="black" points="100.01,-50.1 1071.36,-50.1 "/>
<text text-anchor="middle" x="288.22" y="-33.5" font-family="Courier New" font-size="14.00">unallocated (12)</text>
<polyline fill="none" stroke="black" points="476.44,-25.3 476.44,-50.1 "/>
<text text-anchor="middle" x="773.86" y="-33.5" font-family="Courier New" font-size="14.00">address: eip1967.proxy.implementation (20)</text>
<polyline fill="none" stroke="black" points="100.01,-25.3 1071.36,-25.3 "/>
<text text-anchor="middle" x="306.72" y="-8.7" font-family="Courier New" font-size="14.00">unallocated (12)</text>
<polyline fill="none" stroke="black" points="513.44,-0.5 513.44,-25.3 "/>
<text text-anchor="middle" x="792.06" y="-8.7" font-family="Courier New" font-size="14.00">address: eip1967.proxy.admin (20)</text>
</g>
<!-- 1 -->
<g id="node2" class="node">
<title>1</title>
<polygon fill="#f2f2f2" stroke="black" points="1170.37,-285.5 1170.37,-384.7 1989.69,-384.7 1989.69,-285.5 1170.37,-285.5"/>
<text text-anchor="middle" x="1580.03" y="-368.1" font-family="Courier New" font-size="14.00">WithdrawalRequest &lt;&lt;Struct&gt;&gt;</text>
<polyline fill="none" stroke="black" points="1170.37,-359.9 1989.69,-359.9 "/>
<text text-anchor="middle" x="1203.58" y="-343.3" font-family="Courier New" font-size="14.00">offset</text>
<polyline fill="none" stroke="black" points="1170.37,-335.1 1236.78,-335.1 "/>
<text text-anchor="middle" x="1203.58" y="-318.5" font-family="Courier New" font-size="14.00">0</text>
<polyline fill="none" stroke="black" points="1170.37,-310.3 1236.78,-310.3 "/>
<text text-anchor="middle" x="1203.58" y="-293.7" font-family="Courier New" font-size="14.00">1</text>
<polyline fill="none" stroke="black" points="1236.78,-285.5 1236.78,-359.9 "/>
<text text-anchor="middle" x="1613.24" y="-343.3" font-family="Courier New" font-size="14.00">type: variable (bytes)</text>
<polyline fill="none" stroke="black" points="1236.78,-335.1 1989.69,-335.1 "/>
<text text-anchor="middle" x="1307.79" y="-318.5" font-family="Courier New" font-size="14.00">unallocated (6)</text>
<polyline fill="none" stroke="black" points="1378.8,-310.3 1378.8,-335.1 "/>
<text text-anchor="middle" x="1496.02" y="-318.5" font-family="Courier New" font-size="14.00">uint40: claimTimestamp (5)</text>
<polyline fill="none" stroke="black" points="1613.24,-310.3 1613.24,-335.1 "/>
<text text-anchor="middle" x="1692.65" y="-318.5" font-family="Courier New" font-size="14.00">bool: claimed (1)</text>
<polyline fill="none" stroke="black" points="1772.06,-310.3 1772.06,-335.1 "/>
<text text-anchor="middle" x="1880.88" y="-318.5" font-family="Courier New" font-size="14.00">address: withdrawer (20)</text>
<polyline fill="none" stroke="black" points="1236.78,-310.3 1989.69,-310.3 "/>
<text text-anchor="middle" x="1424.79" y="-293.7" font-family="Courier New" font-size="14.00">uint128: queued (16)</text>
<polyline fill="none" stroke="black" points="1612.81,-285.5 1612.81,-310.3 "/>
<text text-anchor="middle" x="1800.82" y="-293.7" font-family="Courier New" font-size="14.00">uint128: assets (16)</text>
</g>
<!-- 4&#45;&gt;1 -->
<g id="edge1" class="edge">
<title>4:9&#45;&gt;1</title>
<path fill="none" stroke="black" d="M1071.36,-335.1C1100.26,-335.1 1130.09,-335.1 1160.14,-335.1"/>
<polygon fill="black" stroke="black" points="1160.33,-338.6 1170.33,-335.1 1160.33,-331.6 1160.33,-338.6"/>
</g>
<!-- 2 -->
<g id="node3" class="node">
<title>2</title>
<polygon fill="#f2f2f2" stroke="black" points="1294.79,-170.5 1294.79,-261.7 1865.28,-261.7 1865.28,-170.5 1294.79,-170.5"/>
<text text-anchor="middle" x="1580.03" y="-245.1" font-family="Courier New" font-size="14.00">address[]: baseAssets &lt;&lt;Array&gt;&gt;</text>
<text text-anchor="middle" x="1580.03" y="-228.3" font-family="Courier New" font-size="14.00">0x38395c5dceade9603479b177b68959049485df8aa97b39f3533039af5f456199</text>
<polyline fill="none" stroke="black" points="1294.79,-220.1 1865.28,-220.1 "/>
<text text-anchor="middle" x="1386.99" y="-203.5" font-family="Courier New" font-size="14.00">offset</text>
<polyline fill="none" stroke="black" points="1294.79,-195.3 1479.19,-195.3 "/>
<text text-anchor="middle" x="1386.99" y="-178.7" font-family="Courier New" font-size="14.00">0</text>
<polyline fill="none" stroke="black" points="1479.19,-170.5 1479.19,-220.1 "/>
<text text-anchor="middle" x="1671.81" y="-203.5" font-family="Courier New" font-size="14.00">type: variable (bytes)</text>
<polyline fill="none" stroke="black" points="1479.19,-195.3 1864.43,-195.3 "/>
<text text-anchor="middle" x="1583.91" y="-178.7" font-family="Courier New" font-size="14.00">unallocated (12)</text>
<polyline fill="none" stroke="black" points="1688.62,-170.5 1688.62,-195.3 "/>
<text text-anchor="middle" x="1776.52" y="-178.7" font-family="Courier New" font-size="14.00">address (20)</text>
</g>
<!-- 4&#45;&gt;2 -->
<g id="edge2" class="edge">
<title>4:15&#45;&gt;2</title>
<path fill="none" stroke="black" d="M1071.36,-211.1C1140.35,-211.1 1214.62,-211.57 1284.48,-212.22"/>
<polygon fill="black" stroke="black" points="1284.72,-215.72 1294.76,-212.31 1284.79,-208.72 1284.72,-215.72"/>
</g>
<!-- 3 -->
<g id="node4" class="node">
<title>3</title>
<polygon fill="#f2f2f2" stroke="black" points="1107.36,-2.7 1107.36,-151.5 2052.7,-151.5 2052.7,-2.7 1107.36,-2.7"/>
<text text-anchor="middle" x="1580.03" y="-134.9" font-family="Courier New" font-size="14.00">BaseAssetConfig &lt;&lt;Struct&gt;&gt;</text>
<polyline fill="none" stroke="black" points="1107.36,-126.7 2052.7,-126.7 "/>
<text text-anchor="middle" x="1140.57" y="-110.1" font-family="Courier New" font-size="14.00">offset</text>
<polyline fill="none" stroke="black" points="1107.36,-101.9 1173.77,-101.9 "/>
<text text-anchor="middle" x="1140.57" y="-85.3" font-family="Courier New" font-size="14.00">0</text>
<polyline fill="none" stroke="black" points="1107.36,-77.1 1173.77,-77.1 "/>
<text text-anchor="middle" x="1140.57" y="-60.5" font-family="Courier New" font-size="14.00">1</text>
<polyline fill="none" stroke="black" points="1107.36,-52.3 1173.77,-52.3 "/>
<text text-anchor="middle" x="1140.57" y="-35.7" font-family="Courier New" font-size="14.00">2</text>
<polyline fill="none" stroke="black" points="1107.36,-27.5 1173.77,-27.5 "/>
<text text-anchor="middle" x="1140.57" y="-10.9" font-family="Courier New" font-size="14.00">3</text>
<polyline fill="none" stroke="black" points="1173.77,-2.7 1173.77,-126.7 "/>
<text text-anchor="middle" x="1613.24" y="-110.1" font-family="Courier New" font-size="14.00">type: variable (bytes)</text>
<polyline fill="none" stroke="black" points="1173.77,-101.9 2052.7,-101.9 "/>
<text text-anchor="middle" x="1395.39" y="-85.3" font-family="Courier New" font-size="14.00">uint128: sellPrice (16)</text>
<polyline fill="none" stroke="black" points="1617,-77.1 1617,-101.9 "/>
<text text-anchor="middle" x="1834.42" y="-85.3" font-family="Courier New" font-size="14.00">uint128: buyPrice (16)</text>
<polyline fill="none" stroke="black" points="1173.77,-77.1 2052.7,-77.1 "/>
<text text-anchor="middle" x="1395.49" y="-60.5" font-family="Courier New" font-size="14.00">uint128: sellLiquidityRemaining (16)</text>
<polyline fill="none" stroke="black" points="1617.22,-52.3 1617.22,-77.1 "/>
<text text-anchor="middle" x="1834.74" y="-60.5" font-family="Courier New" font-size="14.00">uint128: buyLiquidityRemaining (16)</text>
<polyline fill="none" stroke="black" points="1173.77,-52.3 2052.7,-52.3 "/>
<text text-anchor="middle" x="1412.39" y="-35.7" font-family="Courier New" font-size="14.00">uint128: pendingRedeemAssets (16)</text>
<polyline fill="none" stroke="black" points="1651.01,-27.5 1651.01,-52.3 "/>
<text text-anchor="middle" x="1851.83" y="-35.7" font-family="Courier New" font-size="14.00">uint128: crossPrice (16)</text>
<polyline fill="none" stroke="black" points="1173.77,-27.5 2052.7,-27.5 "/>
<text text-anchor="middle" x="1248.98" y="-10.9" font-family="Courier New" font-size="14.00">unallocated (10)</text>
<polyline fill="none" stroke="black" points="1324.19,-2.7 1324.19,-27.5 "/>
<text text-anchor="middle" x="1420.41" y="-10.9" font-family="Courier New" font-size="14.00">address: adapter (20)</text>
<polyline fill="none" stroke="black" points="1516.62,-2.7 1516.62,-27.5 "/>
<text text-anchor="middle" x="1642.24" y="-10.9" font-family="Courier New" font-size="14.00">uint8: baseAssetDecimals (1)</text>
<polyline fill="none" stroke="black" points="1767.86,-2.7 1767.86,-27.5 "/>
<text text-anchor="middle" x="1910.28" y="-10.9" font-family="Courier New" font-size="14.00">bool: peggedToLiquidityAsset (1)</text>
</g>
<!-- 4&#45;&gt;3 -->
<g id="edge3" class="edge">
<title>4:25&#45;&gt;3</title>
<path fill="none" stroke="black" d="M1071.36,-186.1C1090.84,-186.1 1089.36,-168.54 1107.36,-161.1 1112.22,-159.09 1117.13,-157.13 1122.08,-155.22"/>
<polygon fill="black" stroke="black" points="1123.54,-158.41 1131.65,-151.6 1121.06,-151.87 1123.54,-158.41"/>
</g>
</g>
</svg>
