<?xml version="1.0" encoding="UTF-8" standalone="no"?>
<!DOCTYPE svg PUBLIC "-//W3C//DTD SVG 1.1//EN"
 "http://www.w3.org/Graphics/SVG/1.1/DTD/svg11.dtd">
<!-- Generated by graphviz version 5.0.0 (20220707.1540)
 -->
<!-- Title: UmlClassDiagram Pages: 1 -->
<svg width="863pt" height="320pt"
 viewBox="0.00 0.00 863.38 320.00" xmlns="http://www.w3.org/2000/svg" xmlns:xlink="http://www.w3.org/1999/xlink">
<g id="graph0" class="graph" transform="scale(1 1) rotate(0) translate(4 316)">
<title>UmlClassDiagram</title>
<polygon fill="white" stroke="transparent" points="-4,4 -4,-316 859.38,-316 859.38,4 -4,4"/>
<!-- 0 -->
<g id="node1" class="node">
<title>0</title>
<polygon fill="#f2f2f2" stroke="black" points="436,-174.5 436,-232.9 612.54,-232.9 612.54,-174.5 436,-174.5"/>
<text text-anchor="middle" x="524.27" y="-216.3" font-family="Times,serif" font-size="14.00">&lt;&lt;Interface&gt;&gt;</text>
<text text-anchor="middle" x="524.27" y="-199.5" font-family="Times,serif" font-size="14.00">IERC20</text>
<text text-anchor="middle" x="524.27" y="-182.7" font-family="Times,serif" font-size="14.00">../src/contracts/Interfaces.sol</text>
</g>
<!-- 3 -->
<g id="node2" class="node">
<title>3</title>
<polygon fill="#f2f2f2" stroke="black" points="0,-174.5 0,-232.9 176.54,-232.9 176.54,-174.5 0,-174.5"/>
<text text-anchor="middle" x="88.27" y="-216.3" font-family="Times,serif" font-size="14.00">&lt;&lt;Interface&gt;&gt;</text>
<text text-anchor="middle" x="88.27" y="-199.5" font-family="Times,serif" font-size="14.00">IOETHVault</text>
<text text-anchor="middle" x="88.27" y="-182.7" font-family="Times,serif" font-size="14.00">../src/contracts/Interfaces.sol</text>
</g>
<!-- 7 -->
<g id="node3" class="node">
<title>7</title>
<polygon fill="#f2f2f2" stroke="black" points="434.03,-0.5 434.03,-42.1 614.51,-42.1 614.51,-0.5 434.03,-0.5"/>
<text text-anchor="middle" x="524.27" y="-25.5" font-family="Times,serif" font-size="14.00">OEthARM</text>
<text text-anchor="middle" x="524.27" y="-8.7" font-family="Times,serif" font-size="14.00">../src/contracts/OethARM.sol</text>
</g>
<!-- 8 -->
<g id="node4" class="node">
<title>8</title>
<polygon fill="#f2f2f2" stroke="black" points="159.05,-87.5 159.05,-129.1 409.49,-129.1 409.49,-87.5 159.05,-87.5"/>
<text text-anchor="middle" x="284.27" y="-112.5" font-family="Times,serif" font-size="14.00">OethLiquidityManager</text>
<text text-anchor="middle" x="284.27" y="-95.7" font-family="Times,serif" font-size="14.00">../src/contracts/OethLiquidityManager.sol</text>
</g>
<!-- 7&#45;&gt;8 -->
<g id="edge3" class="edge">
<title>7&#45;&gt;8</title>
<path fill="none" stroke="black" d="M468.3,-42.12C438.67,-52.62 401.67,-65.72 368.64,-77.42"/>
<polygon fill="none" stroke="black" points="365.1,-67.53 340.33,-87.45 372.11,-87.33 365.1,-67.53"/>
</g>
<!-- 11 -->
<g id="node7" class="node">
<title>11</title>
<polygon fill="#f2f2f2" stroke="black" points="427.03,-87.5 427.03,-129.1 621.51,-129.1 621.51,-87.5 427.03,-87.5"/>
<text text-anchor="middle" x="524.27" y="-112.5" font-family="Times,serif" font-size="14.00">PeggedARM</text>
<text text-anchor="middle" x="524.27" y="-95.7" font-family="Times,serif" font-size="14.00">../src/contracts/PeggedARM.sol</text>
</g>
<!-- 7&#45;&gt;11 -->
<g id="edge2" class="edge">
<title>7&#45;&gt;11</title>
<path fill="none" stroke="black" d="M524.27,-42.44C524.27,-47 524.27,-52.03 524.27,-57.21"/>
<polygon fill="none" stroke="black" points="513.77,-57.3 524.27,-87.3 534.77,-57.3 513.77,-57.3"/>
</g>
<!-- 20 -->
<g id="node8" class="node">
<title>20</title>
<polygon fill="#f2f2f2" stroke="black" points="639.16,-79.1 639.16,-137.5 855.38,-137.5 855.38,-79.1 639.16,-79.1"/>
<text text-anchor="middle" x="747.27" y="-120.9" font-family="Times,serif" font-size="14.00">&lt;&lt;Abstract&gt;&gt;</text>
<text text-anchor="middle" x="747.27" y="-104.1" font-family="Times,serif" font-size="14.00">Initializable</text>
<text text-anchor="middle" x="747.27" y="-87.3" font-family="Times,serif" font-size="14.00">../src/contracts/utils/Initializable.sol</text>
</g>
<!-- 7&#45;&gt;20 -->
<g id="edge1" class="edge">
<title>7&#45;&gt;20</title>
<path fill="none" stroke="black" d="M576.27,-42.12C596.77,-49.93 621.06,-59.19 644.8,-68.24"/>
<polygon fill="none" stroke="black" points="641.42,-78.19 673.19,-79.06 648.9,-58.57 641.42,-78.19"/>
</g>
<!-- 8&#45;&gt;0 -->
<g id="edge5" class="edge">
<title>8&#45;&gt;0</title>
<path fill="none" stroke="black" stroke-dasharray="5,2" d="M335.17,-129.11C366.24,-141.2 406.69,-156.94 442.2,-170.76"/>
<polygon fill="black" stroke="black" points="441,-174.05 451.59,-174.42 443.54,-167.53 441,-174.05"/>
</g>
<!-- 8&#45;&gt;3 -->
<g id="edge6" class="edge">
<title>8&#45;&gt;3</title>
<path fill="none" stroke="black" stroke-dasharray="5,2" d="M242.7,-129.11C217.76,-140.99 185.42,-156.41 156.78,-170.05"/>
<polygon fill="black" stroke="black" points="155.15,-166.95 147.63,-174.42 158.16,-173.27 155.15,-166.95"/>
</g>
<!-- 10 -->
<g id="node6" class="node">
<title>10</title>
<polygon fill="#f2f2f2" stroke="black" points="194.67,-182.9 194.67,-224.5 417.87,-224.5 417.87,-182.9 194.67,-182.9"/>
<text text-anchor="middle" x="306.27" y="-207.9" font-family="Times,serif" font-size="14.00">OwnableOperable</text>
<text text-anchor="middle" x="306.27" y="-191.1" font-family="Times,serif" font-size="14.00">../src/contracts/OwnableOperable.sol</text>
</g>
<!-- 8&#45;&gt;10 -->
<g id="edge4" class="edge">
<title>8&#45;&gt;10</title>
<path fill="none" stroke="black" d="M288.94,-129.11C290.62,-136.24 292.6,-144.64 294.61,-153.17"/>
<polygon fill="none" stroke="black" points="284.44,-155.81 301.54,-182.6 304.88,-150.99 284.44,-155.81"/>
</g>
<!-- 9 -->
<g id="node5" class="node">
<title>9</title>
<polygon fill="#f2f2f2" stroke="black" points="220.32,-269.9 220.32,-311.5 392.22,-311.5 392.22,-269.9 220.32,-269.9"/>
<text text-anchor="middle" x="306.27" y="-294.9" font-family="Times,serif" font-size="14.00">Ownable</text>
<text text-anchor="middle" x="306.27" y="-278.1" font-family="Times,serif" font-size="14.00">../src/contracts/Ownable.sol</text>
</g>
<!-- 10&#45;&gt;9 -->
<g id="edge7" class="edge">
<title>10&#45;&gt;9</title>
<path fill="none" stroke="black" d="M306.27,-224.84C306.27,-229.4 306.27,-234.43 306.27,-239.61"/>
<polygon fill="none" stroke="black" points="295.77,-239.7 306.27,-269.7 316.77,-239.7 295.77,-239.7"/>
</g>
<!-- 11&#45;&gt;0 -->
<g id="edge9" class="edge">
<title>11&#45;&gt;0</title>
<path fill="none" stroke="black" d="M524.27,-129.11C524.27,-139.3 524.27,-152.08 524.27,-164.11"/>
<polygon fill="black" stroke="black" points="520.77,-164.42 524.27,-174.42 527.77,-164.42 520.77,-164.42"/>
</g>
<!-- 11&#45;&gt;10 -->
<g id="edge8" class="edge">
<title>11&#45;&gt;10</title>
<path fill="none" stroke="black" d="M478.04,-129.11C449.81,-141.2 413.06,-156.95 380.8,-170.77"/>
<polygon fill="none" stroke="black" points="376.25,-161.29 352.81,-182.76 384.52,-180.6 376.25,-161.29"/>
</g>
</g>
</svg>
