<?xml version="1.0" encoding="UTF-8" standalone="no"?>
<!DOCTYPE svg PUBLIC "-//W3C//DTD SVG 1.1//EN"
 "http://www.w3.org/Graphics/SVG/1.1/DTD/svg11.dtd">
<!-- Generated by graphviz version 5.0.0 (20220707.1540)
 -->
<!-- Title: UmlClassDiagram Pages: 1 -->
<svg width="621pt" height="303pt"
 viewBox="0.00 0.00 620.54 303.20" xmlns="http://www.w3.org/2000/svg" xmlns:xlink="http://www.w3.org/1999/xlink">
<g id="graph0" class="graph" transform="scale(1 1) rotate(0) translate(4 299.2)">
<title>UmlClassDiagram</title>
<polygon fill="white" stroke="transparent" points="-4,4 -4,-299.2 616.54,-299.2 616.54,4 -4,4"/>
<!-- 0 -->
<g id="node1" class="node">
<title>0</title>
<polygon fill="#f2f2f2" stroke="black" points="436,-157.7 436,-216.1 612.54,-216.1 612.54,-157.7 436,-157.7"/>
<text text-anchor="middle" x="524.27" y="-199.5" font-family="Times,serif" font-size="14.00">&lt;&lt;Interface&gt;&gt;</text>
<text text-anchor="middle" x="524.27" y="-182.7" font-family="Times,serif" font-size="14.00">IERC20</text>
<text text-anchor="middle" x="524.27" y="-165.9" font-family="Times,serif" font-size="14.00">../src/contracts/Interfaces.sol</text>
</g>
<!-- 3 -->
<g id="node2" class="node">
<title>3</title>
<polygon fill="#f2f2f2" stroke="black" points="0,-157.7 0,-216.1 176.54,-216.1 176.54,-157.7 0,-157.7"/>
<text text-anchor="middle" x="88.27" y="-199.5" font-family="Times,serif" font-size="14.00">&lt;&lt;Interface&gt;&gt;</text>
<text text-anchor="middle" x="88.27" y="-182.7" font-family="Times,serif" font-size="14.00">IOETHVault</text>
<text text-anchor="middle" x="88.27" y="-165.9" font-family="Times,serif" font-size="14.00">../src/contracts/Interfaces.sol</text>
</g>
<!-- 6 -->
<g id="node3" class="node">
<title>6</title>
<polygon fill="#f2f2f2" stroke="black" points="214.87,-0.5 214.87,-42.1 397.68,-42.1 397.68,-0.5 214.87,-0.5"/>
<text text-anchor="middle" x="306.27" y="-25.5" font-family="Times,serif" font-size="14.00">OEthARM</text>
<text text-anchor="middle" x="306.27" y="-8.7" font-family="Times,serif" font-size="14.00">../src/contracts/OEthARM.sol</text>
</g>
<!-- 7 -->
<g id="node4" class="node">
<title>7</title>
<polygon fill="#f2f2f2" stroke="black" points="61.05,-79.1 61.05,-120.7 311.49,-120.7 311.49,-79.1 61.05,-79.1"/>
<text text-anchor="middle" x="186.27" y="-104.1" font-family="Times,serif" font-size="14.00">OethLiquidityManager</text>
<text text-anchor="middle" x="186.27" y="-87.3" font-family="Times,serif" font-size="14.00">../src/contracts/OethLiquidityManager.sol</text>
</g>
<!-- 6&#45;&gt;7 -->
<g id="edge2" class="edge">
<title>6&#45;&gt;7</title>
<path fill="none" stroke="black" d="M275.06,-42.23C265.19,-48.52 253.97,-55.68 242.91,-62.75"/>
<polygon fill="none" stroke="black" points="236.97,-54.08 217.33,-79.07 248.27,-71.78 236.97,-54.08"/>
</g>
<!-- 10 -->
<g id="node7" class="node">
<title>10</title>
<polygon fill="#f2f2f2" stroke="black" points="329.03,-79.1 329.03,-120.7 523.51,-120.7 523.51,-79.1 329.03,-79.1"/>
<text text-anchor="middle" x="426.27" y="-104.1" font-family="Times,serif" font-size="14.00">PeggedARM</text>
<text text-anchor="middle" x="426.27" y="-87.3" font-family="Times,serif" font-size="14.00">../src/contracts/PeggedARM.sol</text>
</g>
<!-- 6&#45;&gt;10 -->
<g id="edge1" class="edge">
<title>6&#45;&gt;10</title>
<path fill="none" stroke="black" d="M337.49,-42.23C347.35,-48.52 358.57,-55.68 369.64,-62.75"/>
<polygon fill="none" stroke="black" points="364.28,-71.78 395.21,-79.07 375.57,-54.08 364.28,-71.78"/>
</g>
<!-- 7&#45;&gt;3 -->
<g id="edge4" class="edge">
<title>7&#45;&gt;3</title>
<path fill="none" stroke="black" d="M163.05,-121.04C152.74,-129.98 140.3,-140.77 128.56,-150.96"/>
<polygon fill="black" stroke="black" points="126.23,-148.34 120.97,-157.54 130.82,-153.63 126.23,-148.34"/>
</g>
<!-- 9 -->
<g id="node6" class="node">
<title>9</title>
<polygon fill="#f2f2f2" stroke="black" points="194.67,-166.1 194.67,-207.7 417.87,-207.7 417.87,-166.1 194.67,-166.1"/>
<text text-anchor="middle" x="306.27" y="-191.1" font-family="Times,serif" font-size="14.00">OwnableOperable</text>
<text text-anchor="middle" x="306.27" y="-174.3" font-family="Times,serif" font-size="14.00">../src/contracts/OwnableOperable.sol</text>
</g>
<!-- 7&#45;&gt;9 -->
<g id="edge3" class="edge">
<title>7&#45;&gt;9</title>
<path fill="none" stroke="black" d="M214.41,-120.83C226.14,-129.14 240.17,-139.08 253.68,-148.65"/>
<polygon fill="none" stroke="black" points="247.76,-157.32 278.31,-166.1 259.9,-140.19 247.76,-157.32"/>
</g>
<!-- 8 -->
<g id="node5" class="node">
<title>8</title>
<polygon fill="#f2f2f2" stroke="black" points="220.32,-253.1 220.32,-294.7 392.22,-294.7 392.22,-253.1 220.32,-253.1"/>
<text text-anchor="middle" x="306.27" y="-278.1" font-family="Times,serif" font-size="14.00">Ownable</text>
<text text-anchor="middle" x="306.27" y="-261.3" font-family="Times,serif" font-size="14.00">../src/contracts/Ownable.sol</text>
</g>
<!-- 9&#45;&gt;8 -->
<g id="edge5" class="edge">
<title>9&#45;&gt;8</title>
<path fill="none" stroke="black" d="M306.27,-208.04C306.27,-212.6 306.27,-217.63 306.27,-222.81"/>
<polygon fill="none" stroke="black" points="295.77,-222.9 306.27,-252.9 316.77,-222.9 295.77,-222.9"/>
</g>
<!-- 10&#45;&gt;0 -->
<g id="edge7" class="edge">
<title>10&#45;&gt;0</title>
<path fill="none" stroke="black" d="M449.5,-121.04C459.8,-129.98 472.24,-140.77 483.98,-150.96"/>
<polygon fill="black" stroke="black" points="481.72,-153.63 491.57,-157.54 486.31,-148.34 481.72,-153.63"/>
</g>
<!-- 10&#45;&gt;9 -->
<g id="edge6" class="edge">
<title>10&#45;&gt;9</title>
<path fill="none" stroke="black" d="M398.14,-120.83C386.4,-129.14 372.37,-139.08 358.86,-148.65"/>
<polygon fill="none" stroke="black" points="352.64,-140.19 334.23,-166.1 364.78,-157.32 352.64,-140.19"/>
</g>
</g>
</svg>
