<?xml version="1.0" encoding="UTF-8" standalone="no"?>
<!DOCTYPE svg PUBLIC "-//W3C//DTD SVG 1.1//EN"
 "http://www.w3.org/Graphics/SVG/1.1/DTD/svg11.dtd">
<!-- Generated by graphviz version 5.0.0 (20220707.1540)
 -->
<!-- Title: UmlClassDiagram Pages: 1 -->
<svg width="773pt" height="415pt"
 viewBox="0.00 0.00 773.38 415.40" xmlns="http://www.w3.org/2000/svg" xmlns:xlink="http://www.w3.org/1999/xlink">
<g id="graph0" class="graph" transform="scale(1 1) rotate(0) translate(4 411.4)">
<title>UmlClassDiagram</title>
<polygon fill="white" stroke="transparent" points="-4,4 -4,-411.4 769.38,-411.4 769.38,4 -4,4"/>
<!-- 0 -->
<g id="node1" class="node">
<title>0</title>
<polygon fill="#f2f2f2" stroke="black" points="295.93,-174.5 295.93,-232.9 496.61,-232.9 496.61,-174.5 295.93,-174.5"/>
<text text-anchor="middle" x="396.27" y="-216.3" font-family="Times,serif" font-size="14.00">&lt;&lt;Abstract&gt;&gt;</text>
<text text-anchor="middle" x="396.27" y="-199.5" font-family="Times,serif" font-size="14.00">AbstractARM</text>
<text text-anchor="middle" x="396.27" y="-182.7" font-family="Times,serif" font-size="14.00">../src/contracts/AbstractARM.sol</text>
</g>
<!-- 2 -->
<g id="node2" class="node">
<title>2</title>
<polygon fill="#f2f2f2" stroke="black" points="436,-269.9 436,-328.3 612.54,-328.3 612.54,-269.9 436,-269.9"/>
<text text-anchor="middle" x="524.27" y="-311.7" font-family="Times,serif" font-size="14.00">&lt;&lt;Interface&gt;&gt;</text>
<text text-anchor="middle" x="524.27" y="-294.9" font-family="Times,serif" font-size="14.00">IERC20</text>
<text text-anchor="middle" x="524.27" y="-278.1" font-family="Times,serif" font-size="14.00">../src/contracts/Interfaces.sol</text>
</g>
<!-- 0&#45;&gt;2 -->
<g id="edge2" class="edge">
<title>0&#45;&gt;2</title>
<path fill="none" stroke="black" d="M435.02,-232.98C448.18,-242.58 463.04,-253.42 476.81,-263.47"/>
<polygon fill="black" stroke="black" points="475.07,-266.53 485.21,-269.6 479.19,-260.88 475.07,-266.53"/>
</g>
<!-- 19 -->
<g id="node7" class="node">
<title>19</title>
<polygon fill="#f2f2f2" stroke="black" points="194.67,-278.3 194.67,-319.9 417.87,-319.9 417.87,-278.3 194.67,-278.3"/>
<text text-anchor="middle" x="306.27" y="-303.3" font-family="Times,serif" font-size="14.00">OwnableOperable</text>
<text text-anchor="middle" x="306.27" y="-286.5" font-family="Times,serif" font-size="14.00">../src/contracts/OwnableOperable.sol</text>
</g>
<!-- 0&#45;&gt;19 -->
<g id="edge1" class="edge">
<title>0&#45;&gt;19</title>
<path fill="none" stroke="black" d="M369.02,-232.98C361.88,-240.39 354.02,-248.55 346.36,-256.5"/>
<polygon fill="none" stroke="black" points="338.69,-249.33 325.43,-278.21 353.81,-263.9 338.69,-249.33"/>
</g>
<!-- 5 -->
<g id="node3" class="node">
<title>5</title>
<polygon fill="#f2f2f2" stroke="black" points="0,-269.9 0,-328.3 176.54,-328.3 176.54,-269.9 0,-269.9"/>
<text text-anchor="middle" x="88.27" y="-311.7" font-family="Times,serif" font-size="14.00">&lt;&lt;Interface&gt;&gt;</text>
<text text-anchor="middle" x="88.27" y="-294.9" font-family="Times,serif" font-size="14.00">IOETHVault</text>
<text text-anchor="middle" x="88.27" y="-278.1" font-family="Times,serif" font-size="14.00">../src/contracts/Interfaces.sol</text>
</g>
<!-- 16 -->
<g id="node4" class="node">
<title>16</title>
<polygon fill="#f2f2f2" stroke="black" points="368.03,-0.5 368.03,-42.1 548.51,-42.1 548.51,-0.5 368.03,-0.5"/>
<text text-anchor="middle" x="458.27" y="-25.5" font-family="Times,serif" font-size="14.00">OethARM</text>
<text text-anchor="middle" x="458.27" y="-8.7" font-family="Times,serif" font-size="14.00">../src/contracts/OethARM.sol</text>
</g>
<!-- 17 -->
<g id="node5" class="node">
<title>17</title>
<polygon fill="#f2f2f2" stroke="black" points="27.05,-182.9 27.05,-224.5 277.49,-224.5 277.49,-182.9 27.05,-182.9"/>
<text text-anchor="middle" x="152.27" y="-207.9" font-family="Times,serif" font-size="14.00">OethLiquidityManager</text>
<text text-anchor="middle" x="152.27" y="-191.1" font-family="Times,serif" font-size="14.00">../src/contracts/OethLiquidityManager.sol</text>
</g>
<!-- 16&#45;&gt;17 -->
<g id="edge6" class="edge">
<title>16&#45;&gt;17</title>
<path fill="none" stroke="black" d="M377.18,-42.15C348.61,-51.01 316.98,-63.03 290.27,-78.6 252.55,-100.59 216.09,-134.08 190.14,-160.72"/>
<polygon fill="none" stroke="black" points="182.35,-153.67 169.51,-182.75 197.68,-168.03 182.35,-153.67"/>
</g>
<!-- 20 -->
<g id="node8" class="node">
<title>20</title>
<polygon fill="#f2f2f2" stroke="black" points="552.37,-174.5 552.37,-232.9 728.17,-232.9 728.17,-174.5 552.37,-174.5"/>
<text text-anchor="middle" x="640.27" y="-216.3" font-family="Times,serif" font-size="14.00">&lt;&lt;Abstract&gt;&gt;</text>
<text text-anchor="middle" x="640.27" y="-199.5" font-family="Times,serif" font-size="14.00">OwnerLP</text>
<text text-anchor="middle" x="640.27" y="-182.7" font-family="Times,serif" font-size="14.00">../src/contracts/OwnerLP.sol</text>
</g>
<!-- 16&#45;&gt;20 -->
<g id="edge4" class="edge">
<title>16&#45;&gt;20</title>
<path fill="none" stroke="black" d="M474.63,-42.28C483.12,-52.88 493.52,-66.25 502.27,-78.6 520.38,-104.18 518.17,-115.78 540.27,-138 547.05,-144.82 554.67,-151.29 562.6,-157.33"/>
<polygon fill="none" stroke="black" points="556.88,-166.13 587.55,-174.48 568.77,-148.83 556.88,-166.13"/>
</g>
<!-- 21 -->
<g id="node9" class="node">
<title>21</title>
<polygon fill="#f2f2f2" stroke="black" points="299.03,-79.1 299.03,-137.5 493.51,-137.5 493.51,-79.1 299.03,-79.1"/>
<text text-anchor="middle" x="396.27" y="-120.9" font-family="Times,serif" font-size="14.00">&lt;&lt;Abstract&gt;&gt;</text>
<text text-anchor="middle" x="396.27" y="-104.1" font-family="Times,serif" font-size="14.00">PeggedARM</text>
<text text-anchor="middle" x="396.27" y="-87.3" font-family="Times,serif" font-size="14.00">../src/contracts/PeggedARM.sol</text>
</g>
<!-- 16&#45;&gt;21 -->
<g id="edge5" class="edge">
<title>16&#45;&gt;21</title>
<path fill="none" stroke="black" d="M443.58,-42.44C440.85,-46.19 437.88,-50.26 434.8,-54.48"/>
<polygon fill="none" stroke="black" points="426.15,-48.51 416.96,-78.94 443.12,-60.89 426.15,-48.51"/>
</g>
<!-- 30 -->
<g id="node10" class="node">
<title>30</title>
<polygon fill="#f2f2f2" stroke="black" points="549.16,-79.1 549.16,-137.5 765.38,-137.5 765.38,-79.1 549.16,-79.1"/>
<text text-anchor="middle" x="657.27" y="-120.9" font-family="Times,serif" font-size="14.00">&lt;&lt;Abstract&gt;&gt;</text>
<text text-anchor="middle" x="657.27" y="-104.1" font-family="Times,serif" font-size="14.00">Initializable</text>
<text text-anchor="middle" x="657.27" y="-87.3" font-family="Times,serif" font-size="14.00">../src/contracts/utils/Initializable.sol</text>
</g>
<!-- 16&#45;&gt;30 -->
<g id="edge3" class="edge">
<title>16&#45;&gt;30</title>
<path fill="none" stroke="black" d="M504.68,-42.12C522.26,-49.63 542.98,-58.48 563.38,-67.2"/>
<polygon fill="none" stroke="black" points="559.45,-76.93 591.16,-79.06 567.7,-57.62 559.45,-76.93"/>
</g>
<!-- 17&#45;&gt;2 -->
<g id="edge8" class="edge">
<title>17&#45;&gt;2</title>
<path fill="none" stroke="black" stroke-dasharray="5,2" d="M242.38,-224.55C293.7,-236.17 359.39,-251.59 425.96,-269.1"/>
<polygon fill="black" stroke="black" points="425.22,-272.52 435.78,-271.69 427.01,-265.75 425.22,-272.52"/>
</g>
<!-- 17&#45;&gt;5 -->
<g id="edge9" class="edge">
<title>17&#45;&gt;5</title>
<path fill="none" stroke="black" stroke-dasharray="5,2" d="M138.7,-224.51C131.36,-235.21 122.07,-248.77 113.47,-261.33"/>
<polygon fill="black" stroke="black" points="110.42,-259.59 107.65,-269.82 116.19,-263.54 110.42,-259.59"/>
</g>
<!-- 17&#45;&gt;19 -->
<g id="edge7" class="edge">
<title>17&#45;&gt;19</title>
<path fill="none" stroke="black" d="M184.93,-224.51C203.14,-235.55 226.37,-249.64 247.63,-262.53"/>
<polygon fill="none" stroke="black" points="242.3,-271.58 273.39,-278.16 253.19,-253.62 242.3,-271.58"/>
</g>
<!-- 18 -->
<g id="node6" class="node">
<title>18</title>
<polygon fill="#f2f2f2" stroke="black" points="387.32,-365.3 387.32,-406.9 559.22,-406.9 559.22,-365.3 387.32,-365.3"/>
<text text-anchor="middle" x="473.27" y="-390.3" font-family="Times,serif" font-size="14.00">Ownable</text>
<text text-anchor="middle" x="473.27" y="-373.5" font-family="Times,serif" font-size="14.00">../src/contracts/Ownable.sol</text>
</g>
<!-- 19&#45;&gt;18 -->
<g id="edge10" class="edge">
<title>19&#45;&gt;18</title>
<path fill="none" stroke="black" d="M345.43,-320.03C363.85,-329.41 386.34,-340.85 407.28,-351.51"/>
<polygon fill="none" stroke="black" points="402.86,-361.05 434.36,-365.3 412.39,-342.33 402.86,-361.05"/>
</g>
<!-- 20&#45;&gt;2 -->
<g id="edge12" class="edge">
<title>20&#45;&gt;2</title>
<path fill="none" stroke="black" stroke-dasharray="5,2" d="M605.15,-232.98C593.34,-242.49 580.01,-253.22 567.64,-263.18"/>
<polygon fill="black" stroke="black" points="565.26,-260.6 559.67,-269.6 569.65,-266.05 565.26,-260.6"/>
</g>
<!-- 20&#45;&gt;18 -->
<g id="edge11" class="edge">
<title>20&#45;&gt;18</title>
<path fill="none" stroke="black" d="M643.54,-233.04C645.11,-260.5 643.05,-301.84 621.27,-328.8 611.93,-340.37 599.92,-349.56 586.8,-356.86"/>
<polygon fill="none" stroke="black" points="582.34,-347.35 559.25,-369.2 590.93,-366.52 582.34,-347.35"/>
</g>
<!-- 21&#45;&gt;0 -->
<g id="edge13" class="edge">
<title>21&#45;&gt;0</title>
<path fill="none" stroke="black" d="M396.27,-137.58C396.27,-139.66 396.27,-141.8 396.27,-143.98"/>
<polygon fill="none" stroke="black" points="385.77,-144.2 396.27,-174.2 406.77,-144.2 385.77,-144.2"/>
</g>
<!-- 21&#45;&gt;2 -->
<g id="edge14" class="edge">
<title>21&#45;&gt;2</title>
<path fill="none" stroke="black" stroke-dasharray="5,2" d="M464.9,-137.61C480.37,-147.03 495.18,-159.04 505.27,-174 522.15,-199.01 526.33,-233.26 526.61,-259.44"/>
<polygon fill="black" stroke="black" points="523.1,-259.73 526.52,-269.76 530.1,-259.79 523.1,-259.73"/>
</g>
</g>
</svg>
