<?xml version="1.0" encoding="UTF-8" standalone="no"?>
<!DOCTYPE svg PUBLIC "-//W3C//DTD SVG 1.1//EN"
 "http://www.w3.org/Graphics/SVG/1.1/DTD/svg11.dtd">
<!-- Generated by graphviz version 5.0.0 (20220707.1540)
 -->
<!-- Title: StorageDiagram Pages: 1 -->
<svg width="887pt" height="207pt"
 viewBox="0.00 0.00 886.93 207.40" xmlns="http://www.w3.org/2000/svg" xmlns:xlink="http://www.w3.org/1999/xlink">
<g id="graph0" class="graph" transform="scale(1 1) rotate(0) translate(4 203.4)">
<title>StorageDiagram</title>
<polygon fill="white" stroke="transparent" points="-4,4 -4,-203.4 882.93,-203.4 882.93,4 -4,4"/>
<!-- 1 -->
<g id="node1" class="node">
<title>1</title>
<polygon fill="#f2f2f2" stroke="black" points="0,-0.5 0,-198.9 878.93,-198.9 878.93,-0.5 0,-0.5"/>
<text text-anchor="middle" x="439.47" y="-182.3" font-family="Courier New" font-size="14.00">OethARM &lt;&lt;Contract&gt;&gt;</text>
<polyline fill="none" stroke="black" points="0,-174.1 878.93,-174.1 "/>
<text text-anchor="middle" x="50.01" y="-157.5" font-family="Courier New" font-size="14.00">slot</text>
<polyline fill="none" stroke="black" points="0,-149.3 100.01,-149.3 "/>
<text text-anchor="middle" x="50.01" y="-132.7" font-family="Courier New" font-size="14.00">0</text>
<polyline fill="none" stroke="black" points="0,-124.5 100.01,-124.5 "/>
<text text-anchor="middle" x="50.01" y="-107.9" font-family="Courier New" font-size="14.00">1&#45;50</text>
<polyline fill="none" stroke="black" points="0,-99.7 100.01,-99.7 "/>
<text text-anchor="middle" x="50.01" y="-83.1" font-family="Courier New" font-size="14.00">51</text>
<polyline fill="none" stroke="black" points="0,-74.9 100.01,-74.9 "/>
<text text-anchor="middle" x="50.01" y="-58.3" font-family="Courier New" font-size="14.00">52&#45;101</text>
<polyline fill="none" stroke="black" points="0,-50.1 100.01,-50.1 "/>
<text text-anchor="middle" x="50.01" y="-33.5" font-family="Courier New" font-size="14.00">0x360..bbd</text>
<polyline fill="none" stroke="black" points="0,-25.3 100.01,-25.3 "/>
<text text-anchor="middle" x="50.01" y="-8.7" font-family="Courier New" font-size="14.00">0xb53..104</text>
<polyline fill="none" stroke="black" points="100.01,-0.5 100.01,-174.1 "/>
<text text-anchor="middle" x="489.47" y="-157.5" font-family="Courier New" font-size="14.00">type: &lt;inherited contract&gt;.variable (bytes)</text>
<polyline fill="none" stroke="black" points="100.01,-149.3 878.93,-149.3 "/>
<text text-anchor="middle" x="175.22" y="-132.7" font-family="Courier New" font-size="14.00">unallocated (30)</text>
<polyline fill="none" stroke="black" points="250.44,-124.5 250.44,-149.3 "/>
<text text-anchor="middle" x="409.66" y="-132.7" font-family="Courier New" font-size="14.00">bool: Initializable.initializing (1)</text>
<polyline fill="none" stroke="black" points="568.88,-124.5 568.88,-149.3 "/>
<text text-anchor="middle" x="723.91" y="-132.7" font-family="Courier New" font-size="14.00">bool: Initializable.initialized (1)</text>
<polyline fill="none" stroke="black" points="100.01,-124.5 878.93,-124.5 "/>
<text text-anchor="middle" x="489.44" y="-107.9" font-family="Courier New" font-size="14.00">uint256[50]: Initializable.gap (1600)</text>
<polyline fill="none" stroke="black" points="100.01,-99.7 878.93,-99.7 "/>
<text text-anchor="middle" x="248.22" y="-83.1" font-family="Courier New" font-size="14.00">unallocated (12)</text>
<polyline fill="none" stroke="black" points="396.44,-74.9 396.44,-99.7 "/>
<text text-anchor="middle" x="637.56" y="-83.1" font-family="Courier New" font-size="14.00">address: OwnableOperable.operator (20)</text>
<polyline fill="none" stroke="black" points="100.01,-74.9 878.93,-74.9 "/>
<text text-anchor="middle" x="489.04" y="-58.3" font-family="Courier New" font-size="14.00">uint256[50]: OwnableOperable._gap (1600)</text>
<polyline fill="none" stroke="black" points="100.01,-50.1 878.93,-50.1 "/>
<text text-anchor="middle" x="239.72" y="-33.5" font-family="Courier New" font-size="14.00">unallocated (12)</text>
<polyline fill="none" stroke="black" points="379.44,-25.3 379.44,-50.1 "/>
<text text-anchor="middle" x="628.86" y="-33.5" font-family="Courier New" font-size="14.00">address: eip1967.proxy.implementation (20)</text>
<polyline fill="none" stroke="black" points="100.01,-25.3 878.93,-25.3 "/>
<text text-anchor="middle" x="258.72" y="-8.7" font-family="Courier New" font-size="14.00">unallocated (12)</text>
<polyline fill="none" stroke="black" points="417.44,-0.5 417.44,-25.3 "/>
<text text-anchor="middle" x="648.06" y="-8.7" font-family="Courier New" font-size="14.00">address: eip1967.proxy.admin (20)</text>
</g>
</g>
</svg>
