<?xml version="1.0" encoding="UTF-8" standalone="no"?>
<!DOCTYPE svg PUBLIC "-//W3C//DTD SVG 1.1//EN"
 "http://www.w3.org/Graphics/SVG/1.1/DTD/svg11.dtd">
<!-- Generated by graphviz version 5.0.0 (20220707.1540)
 -->
<!-- Title: StorageDiagram Pages: 1 -->
<svg width="627pt" height="108pt"
 viewBox="0.00 0.00 627.29 108.20" xmlns="http://www.w3.org/2000/svg" xmlns:xlink="http://www.w3.org/1999/xlink">
<g id="graph0" class="graph" transform="scale(1 1) rotate(0) translate(4 104.2)">
<title>StorageDiagram</title>
<polygon fill="white" stroke="transparent" points="-4,4 -4,-104.2 623.29,-104.2 623.29,4 -4,4"/>
<!-- 1 -->
<g id="node1" class="node">
<title>1</title>
<polygon fill="#f2f2f2" stroke="black" points="0,-0.5 0,-99.7 619.29,-99.7 619.29,-0.5 0,-0.5"/>
<text text-anchor="middle" x="309.65" y="-83.1" font-family="Courier New" font-size="14.00">Proxy &lt;&lt;Contract&gt;&gt;</text>
<polyline fill="none" stroke="black" points="0,-74.9 619.29,-74.9 "/>
<text text-anchor="middle" x="50.01" y="-58.3" font-family="Courier New" font-size="14.00">slot</text>
<polyline fill="none" stroke="black" points="0,-50.1 100.01,-50.1 "/>
<text text-anchor="middle" x="50.01" y="-33.5" font-family="Courier New" font-size="14.00">0x360..bbd</text>
<polyline fill="none" stroke="black" points="0,-25.3 100.01,-25.3 "/>
<text text-anchor="middle" x="50.01" y="-8.7" font-family="Courier New" font-size="14.00">0xb53..104</text>
<polyline fill="none" stroke="black" points="100.01,-0.5 100.01,-74.9 "/>
<text text-anchor="middle" x="359.65" y="-58.3" font-family="Courier New" font-size="14.00">type: &lt;inherited contract&gt;.variable (bytes)</text>
<polyline fill="none" stroke="black" points="100.01,-50.1 619.29,-50.1 "/>
<text text-anchor="middle" x="175.22" y="-33.5" font-family="Courier New" font-size="14.00">unallocated (12)</text>
<polyline fill="none" stroke="black" points="250.44,-25.3 250.44,-50.1 "/>
<text text-anchor="middle" x="434.86" y="-33.5" font-family="Courier New" font-size="14.00">address: eip1967.proxy.implementation (20)</text>
<polyline fill="none" stroke="black" points="100.01,-25.3 619.29,-25.3 "/>
<text text-anchor="middle" x="193.72" y="-8.7" font-family="Courier New" font-size="14.00">unallocated (12)</text>
<polyline fill="none" stroke="black" points="287.44,-0.5 287.44,-25.3 "/>
<text text-anchor="middle" x="453.06" y="-8.7" font-family="Courier New" font-size="14.00">address: eip1967.proxy.admin (20)</text>
</g>
</g>
</svg>
