<?xml version="1.0" encoding="UTF-8" standalone="no"?>
<!DOCTYPE svg PUBLIC "-//W3C//DTD SVG 1.1//EN"
 "http://www.w3.org/Graphics/SVG/1.1/DTD/svg11.dtd">
<!-- Generated by graphviz version 5.0.0 (20220707.1540)
 -->
<!-- Title: UmlClassDiagram Pages: 1 -->
<svg width="227pt" height="129pt"
 viewBox="0.00 0.00 227.34 129.20" xmlns="http://www.w3.org/2000/svg" xmlns:xlink="http://www.w3.org/1999/xlink">
<g id="graph0" class="graph" transform="scale(1 1) rotate(0) translate(4 125.2)">
<title>UmlClassDiagram</title>
<polygon fill="white" stroke="transparent" points="-4,4 -4,-125.2 223.34,-125.2 223.34,4 -4,4"/>
<!-- 18 -->
<g id="node1" class="node">
<title>18</title>
<polygon fill="#f2f2f2" stroke="black" points="23.72,-79.1 23.72,-120.7 195.62,-120.7 195.62,-79.1 23.72,-79.1"/>
<text text-anchor="middle" x="109.67" y="-104.1" font-family="Times,serif" font-size="14.00">Ownable</text>
<text text-anchor="middle" x="109.67" y="-87.3" font-family="Times,serif" font-size="14.00">../src/contracts/Ownable.sol</text>
</g>
<!-- 23 -->
<g id="node2" class="node">
<title>23</title>
<polygon fill="#f2f2f2" stroke="black" points="0,-0.5 0,-42.1 219.34,-42.1 219.34,-0.5 0,-0.5"/>
<text text-anchor="middle" x="109.67" y="-25.5" font-family="Times,serif" font-size="14.00">ZapperLidoARM</text>
<text text-anchor="middle" x="109.67" y="-8.7" font-family="Times,serif" font-size="14.00">../src/contracts/ZapperLidoARM.sol</text>
</g>
<!-- 23&#45;&gt;18 -->
<g id="edge1" class="edge">
<title>23&#45;&gt;18</title>
<path fill="none" stroke="black" d="M109.67,-42.43C109.67,-44.45 109.67,-46.56 109.67,-48.73"/>
<polygon fill="none" stroke="black" points="99.17,-48.91 109.67,-78.91 120.17,-48.91 99.17,-48.91"/>
</g>
</g>
</svg>
